<?xml version="1.0" encoding="UTF-8" standalone="no"?>
<svg
   id="bird-cells"
   viewBox="0 0 3671 510"
   version="1.1"
   sodipodi:docname="bird-cells-white.svg"
   inkscape:version="1.2 (dc2aeda, 2022-05-15)"
   xmlns:inkscape="http://www.inkscape.org/namespaces/inkscape"
   xmlns:sodipodi="http://sodipodi.sourceforge.net/DTD/sodipodi-0.dtd"
   xmlns="http://www.w3.org/2000/svg"
   xmlns:svg="http://www.w3.org/2000/svg">
  <defs
     id="defs49" />
  <sodipodi:namedview
     id="namedview47"
     pagecolor="#ffffff"
     bordercolor="#000000"
     borderopacity="0.25"
     inkscape:showpageshadow="2"
     inkscape:pageopacity="0.0"
     inkscape:pagecheckerboard="0"
     inkscape:deskcolor="#d1d1d1"
     showgrid="false"
     inkscape:zoom="0.97736557"
     inkscape:cx="3420.9308"
     inkscape:cy="181.09907"
     inkscape:window-width="1440"
     inkscape:window-height="876"
     inkscape:window-x="1600"
     inkscape:window-y="202"
     inkscape:window-maximized="0"
     inkscape:current-layer="bird-cells" />
  <g
     fill="none"
     fill-rule="evenodd"
     id="g44"
     style="display:inline">
    <g
       id="g42">
      <path
         class="cell-container"
         stroke="none"
         d="m 0.5,0.5 h 359 v 509 H 0.5 Z"
         id="path2" />
      <path
         class="cell-container"
         stroke="none"
         d="m 359.5,0.5 h 359 v 509 h -359 z"
         id="path4" />
      <path
         class="cell-container"
         stroke="none"
         d="m 718.5,0.5 h 359 v 509 h -359 z"
         id="path6" />
      <path
         class="cell-container"
         stroke="none"
         d="m 1077.5,0.5 h 370 v 509 h -370 z"
         id="path8" />
      <path
         class="cell-container"
         stroke="none"
         d="m 1448.5,0.5 h 370 v 509 h -370 z"
         id="path10" />
      <path
         class="cell-container"
         stroke="none"
         d="m 1818.5,0.5 h 370 v 509 h -370 z"
         id="path12" />
      <path
         class="cell-container"
         stroke="none"
         d="m 2189.5,0.5 h 370 v 509 h -370 z"
         id="path14" />
      <path
         class="cell-container"
         stroke="none"
         d="m 2559.5,0.5 h 370 v 509 h -370 z"
         id="path16" />
      <path
         class="cell-container"
         stroke="none"
         d="m 2930.5,0.5 h 370 v 509 h -370 z"
         id="path18" />
      <path
         class="cell-container"
         stroke="none"
         d="m 3300.5,0.5 h 370 v 509 h -370 z"
         id="path20" />
      <path
         fill="#000000"
         d="m 51,288.38 c 13.33,-5.34 35.33,-9.34 66,-12 0,0 18.44,-9.95 55,-15 1.04,-0.15 7.5,-8 36,-13 16,0 21,-3.88 30,5 3.53,-13.53 19.13,-16.58 29,-15 6.9,1.1 11.3,5.93 12,8 4,12 21,5 30,12 -23,6 -23,7 -32,11 -16,14 -31,31 -47,31 -16,4 -32.83,5.33 -50.5,4 -1,4 -3.5,6.66 -7.5,8 -6,2 -1,-9 -4,-12 -3,-3 -3,10 -17,18 -1,-14 -5,-10 -5,-18 0,-8 4,13 -17,18 -14,3.33 -31.67,4 -53,2 26,-8.67 41.33,-16.34 46,-23 -5,0 -18,-1 -21,-9 -14,-4.5 -30.67,-4.5 -50,0 z"
         id="path22" />
      <path
         fill="#000000"
         d="m 639,273 c 0,2.07 -10,3 -16,5 -9,1 -8,8 -14,7 -6,-1 -5,8 -19,14 2,11 21,9 36,19 29,30.62 18,19 37,63 14,28 18,30 27,57 -1,1 -11,-1 -14,-7 -1,5 -5,1 -4,7 -5,-1 -8,-8 -12,-11 -4,-1 1,7 -2,8 -4,0 -5,-8 -9,-8 -4,1 1,6 -2,7 -33,-30 -43,-21 -43,-36 -8,10 -10,-2 -19,3 -4,-5 -6,-10 -2,-17 -1,-5 -7,5 -11,3 -1.33,-6 1,-12.67 7,-20 -6.67,6.67 -14,10 -22,10 1,-10 -1,-6.5 5,-16 -6,7.5 -13,8 -19,6 -4.43,-2.1 4,-8 2,-11.5 -8,0 -22.76,-0.3 -24,-3.5 -3.26,-8.4 8,-19 4,-25 -3.12,-4.67 -12,9 -15,-3 0,-12 -4.67,-17 -14,-15 -8.67,-1.33 -19.33,-1.33 -32,0 -19,2 -27,-5 -58,-5 10,-5 9,-13 27,-13 -21,-3 -10,-10 -45,-13 30,-8 32,0 54,7 68,-7 22,-15 94,-22 14,-2 36,-4 58,2 5,-2 6,-5 15,-6 8,0 12.67,3.67 14,11 10.67,0.72 16,1.72 16,3 z"
         id="path24" />
      <path
         fill="#000000"
         d="m 729,299.03 c 32,-14 56,-26 90,-40 20,-6 37,-5 56,-8 28,0 17,-8 55,-3 8,-1 10.95,-7.5 19,-7 8.67,0 13.33,2.66 14,8 l 26,5 -24,5 c -2.67,5.33 -8,8.33 -16,9 -12,12 -11,18 -29,21 22,13 23,17 64,38 13,11 13,15 17,31 4,15.98 14.06,25.74 21,35 26,46 23,59 45,80 -11,-1 -23,-8 -28,-13 -4,-1 -3,5 -3,8 -6,-2 -8,-15 -16,-13 -3.46,0 4,5 0,13 -13,-5 -14,-7 -16,-13 -3,-4 -7,-11 -3,-12 -2,8 0,12 -6,12 -5,-10 -7,-3 -11,-12 -8,-14 -17,-12 -17,-29 -4,0 -7,4 -10,9 -3,-4 0,-9 -1,-12 -2,0.66 -4.33,1.66 -7,3 -2,-12.67 -2,-21.67 0,-27 -8,2 -4,6 -15,10 -5,-6 -4,-12 -2,-21 -5,6 -5,-3 -12,2 -9,-9 -10,-18 -25,-18 -5,-12 -3,-20 -11,-22 -3.23,0.86 -4,10 -6,7 -2,-3 -2,-10 -5,-12 -2,-3 -6,6 -9,3 0,-5 -2,-11 -6,-14 -3,-4 -5,0 -10,3 -2,-5 -2,-9 -1,-14 -4,-1 -14,5 -12,-2 0,-7 -4,-4 -8,-4 -5,0 1,-5 -1,-6 -5,-2 -13,2 -21,6 -5,-2 4,-10 0,-10 -31,-1 -38,7 -76,4 z"
         id="path26" />
      <path
         fill="#000000"
         d="m 1367,254.1 -18,-3 c -2,-6 -5.33,-9.35 -10,-10 -14,-1 -17,7 -22,10 -21,-3 -19,-1 -35,0 -30,-5 -36,4 -50,7 -36,5 -33,9 -48,16 -34,18 -41,19 -75,29 6.67,0.65 14,0 22,-2 -14.67,4 -21,6.32 -19,7 31,-5 29.02,4.23 52,0 11,-3 10,-9 13,-12 2,7 1,7 2,13 16,-3 21,-2 30,-2 3,4 -3.66,8.6 0,10 4,-1.35 9.33,-2.68 16,-4 -4,4.65 -5.67,8.32 -5,11 15,2 12,4 24,1 -11,4 -11,4 -16,10 16,3 14,1 24,2 -4,4 -3,8 -1,11 6,-3 9.53,-4.5 12,-3 -3,3.44 -5,7 -2,9 10,-2 12.4,-5.28 15,-2 -3,8 0,11 1,22 5,0 10,-2 15,-4 1,8 -3,8 -3,16 6,3 13,-3 17,-1 -7,4 -7,6 -8,9 7,3 6,2 14,0 -5.33,4 -7,7.65 -5,11 5.33,-3.35 8.33,-3.35 9,0 -2,6 0,7 1,15 10,-5 10,2 21,5 5.97,3.27 6.4,10.54 11,14 9,6.74 20,9 19,9 -1,0 -9,-11 -5,-10 3.33,4 7.67,8.32 13,13 0,-8 -0.67,-13.68 -2,-17 9,14 12,12 28,23 3,-13 -6,-18 -15,-28 19,22 19,20 30,24 -24,-30 -20,-26 -29,-53 -14,-26 -24,-61 -39,-75 -18,-12 -19,-17 -38,-26 -3.33,-4.68 -7.33,-8 -12,-10 12,-2 21.33,-5.68 28,-11 2,-5 7,-5 11,-9 6,-1.35 9.67,-4.35 11,-9 z"
         id="path28" />
      <path
         fill="#000000"
         d="m 1751,256 c -11,-1 -12,-4 -24,-6 -3,-6 -4,-5 -10,-7 -14,0 -21,7 -29,12 -24,-3 -31,-1 -44,2 -46,12 -43,12 -70,23 -46,27 -39,30 -58,40 23,6 31,-3 47,-7 -6.67,2.67 -8.67,6 -6,10 6.67,-2.67 11,-3.67 13,-3 -5,2 -9.7,10.57 -5,10 27,-2 30.7,-14.27 46,-15 -4,5 -6,8 -4,13 12,-3 11,-2 18,-4 -2,6 -3,6 0,15 8.5,2 13,-5 13,-5 4,4 0,11 0,20 11,0 11,2 15,0 -2,8 2,8 5,14 4,-8 7,-5 14,-12 -2,13 5,12 6,21 10,-9 11,-11 13,-21 -4,15 2,17 5,28 4,-7 7,-7 8,-16 1,5 3.98,7.87 5,6 3,-10 3.32,-8.12 4,-6 -3,13 2,16 5,27 7,-12 5,-18 5,-19 2,15 15,8 28,33 4,-14 -16,-38 -23,-73 -4,-23 -3,-28 -14,-43 -3,-7 -10,-8 -13,-7 8,-4 7,-8 12,-15 15,-2 11,-5 15,-10 -1,0 5,-4 23,-5 z"
         id="path30" />
      <path
         fill="#000000"
         d="m 2119.66,270.36 c 0,-3 -11,-6 -20,-6 -1.34,-2.67 -3.67,-5 -7,-7 -5.34,-2.67 -12.34,-2.67 -21,0 -8,1 -16,-13 -8,-26 7,-3 10,-9 11,-14 -8,-4 -11,-5 -22,-4 -65,4 -85,28 -110,50 -8,7 10,5 18,5 -42,0 -78,41 -72,37 6,-4 16,6 35,-11 2,-1 -7,5 -15,15 21,-3 21,-6 39,-4 -2,7 3.6,7.22 9,8 4.33,0.62 9.2,-0.44 15,0 12.53,1.4 13,-1 18,-1 6,0 5.35,0.6 9,0 9,-2 7,-3 10,-7 -3,8 1,11 6,21 7,-6 6,-14 6,-19 0,13 -1,9 2,17 6,-5 6,-4 8,-12 -3,10 -1,17 3,28 5,0 6.84,-4.66 10,-3 0,5 0,3 6,13 5,-5 2,3 7,-8 -1,10 4,4 10,18 5,-10 3,-14 -1,-23 6,13 8,12 13,19 2,-19 -1,-23 -7,-36 3,-19 -6,-20 -5,-33.5 8,-10.5 15,2 24,-6.5 7,-1 4,-4 9,-7 8,-5 19,1 20,-3 z"
         id="path32" />
      <path
         fill="#000000"
         d="m 2485,278.84 c -6,-3 -7,-1 -16,-3 1,-5 -4.66,-10 -11,-10 -9.16,0 -9.5,5.2 -21,8 -9,2.2 -12.7,3.03 -18,-2 -24,-15 -11,-19 -32,-44 -9,-7 -12,-11 -4,-21 13,-14 17,-22 17,-32 -4,-7 -85,-3 -113,34 5.06,1.15 16.8,-6.7 20.65,-6 4.35,1 -18.65,13 -9.65,11 9,-2 15,-7 21,-7 2.67,-0.05 -2,2 -3,7 3.78,0.9 9.8,-1.85 16,-3 3.52,-0.65 7.9,0.34 10,0 -4,3 -10,1 -20,17 6,5.5 14,-1.5 20,-1.5 -3,5.5 -11,2.5 -15,20.5 2,4 11,-6 9,-2 0,4 -7,2 -9,18 6,0 8,-7 9,-2 -2,3 -5,3 -5,9 3,3 9,-4 11,-4 -1,2 -6,2 -6,10 -38,9 -49,18 -68,30 7,4.9 23,-5 25,-1 -1.46,3.22 -11,5.9 -28,11 17,2 31,2 42.65,-5.1 10.35,1.1 18.57,-1.9 21.35,-1.9 4,6 0,13 7,15 3,-5 8,-12 9,-15 3,-2 -5,11 3,13 9,0 19,7 36,7 18,0 22,-6 42,-13 12,-1 20,-5 25,-18 3,-8 9,-4 18,-13 2,-2 12,-3 16,-6 z"
         id="path34" />
      <path
         fill="#000000"
         d="m 2859,275.74 c -0.52,-2.35 -8,-3 -20,-5 -6.62,-3.1 -7.68,-9 -14,-9 -13,0 -7.83,6.16 -21,9 -7.7,1.67 -15,2 -20,0 -5,-2 -6.32,-3.7 -10,-6 -19.2,-11.9 -10.17,0.25 -19.17,-20 -10.54,-12 -10.6,-24.55 -6.83,-42 0.97,-4.5 2.27,-8.15 4,-11 6,-9.83 12.67,-30.6 11,-45 -1.4,-12.16 -11,-14 -27,-17 -21,-4 -33,-5 -58,-2 -9,8 -21,5 -33,21 9,-1 7,-3 14,3 8,-4 15.48,-1.3 16,-1 7.16,4.13 -3.54,3.73 1,6 6,0 2,4 0,9 5,-0.5 8,-1 6,4 4.4,3.22 8.36,-3.24 9,1 0.86,5.76 -11.7,9.4 -9,17 18,3 20,5 22,7 -4,1 3,2 -26,11 3,10 14,6 15,16 0,7 -9,4 -12,17 12,2 9,6 23,6 -5,0 -18,4 -26,12 9,2 6,6 14,7 7,3 6,3.36 4,7 -6.5,11.86 -5,15 -20,23 -15,8 -26.3,15.78 -35,22 -4.63,3.32 -7.48,8.23 -11,12 12,-2 12,-3 15,-2 2,4 1,-3 0,11 6,-5 16,-12 22,-16 5,0 13,-3 17,0 5,0 0,-7 0,-8.96 0,-1.96 3.48,5.8 5,3.96 5,-6 4,-9 3,-14 4,3 1,10.9 6,12 19,6 21,5 42,-1 1.2,-0.07 2.95,-0.92 4.3,-0.96 1.2,1.42 0.7,3 3.7,3.96 1.57,-2.35 4.93,-3.06 6.83,-3.1 0.52,0 -0.24,-0.93 0,-0.86 10,3 17.17,3.96 32.17,0.96 13,-8 24,-5 35,-17 14,-6 14,-10 17,-16 4,-3 9,0 20,-4 z"
         id="path36" />
      <path
         fill="#000000"
         d="m 3243,286 c -8,-3 -7,-2 -17,-4 -7.6,-3.28 -5,-11 -21,-13 -16.1,1.03 -15,14 -31,13 -10.43,-0.65 -13,-7 -21,-11 -8,-4 -13,-5 -19,-12 -13,-42 -1.27,-9.56 -3,-59 -0.27,-7.56 -6,-44 -1,-54 8,-3 4.84,-13.8 0,-22 -32,-34 -40.22,-58.03 -60,-79 -4,-1 5,12 -2,7 -8.8,-5.08 -7,-14 -23,-22 1,5 4,12 2,15 -5,-3 -14,-23 -20,-23 1,4 8,11 8,23 0,4 -14,-6 -9,-1 5,5 7,13 9,19 7.25,13.18 22,23 22,22 -3,-1 -17,-12 -26,-11 2,5 8,7 10,17 -2,2 0,3 -8,0 4,19 14,28 35,41 2.6,4.24 -11.1,-4.18 -14,-1 -2.6,2.82 1.67,8.6 5,15 9.17,17.6 18.32,18.92 20,30 -1,4 -9.77,-1.26 -14,2 -2.27,1.74 4.75,5.74 4,10 -0.75,4.24 -9.22,1.68 -8,6 2.48,2.98 -2,12 -1,17 1,5 4,6 4,11 0,5 7,-2 8,6 5,4 -1,4 -8,12 5,5 10,4 8,14 -2,10 -7,6 -12,12 -5,7 -3,11 -10,17 -9,8 -15,4 -31,16 -13,7 -14,2 -30,13 18,2 36,12 68,5 5,2 -5,5 -2,7 14,1 16,3 23,0 -4,3 -10.62,8.7 -7,9 8.53,0.74 23.38,-0.95 30,0 8.4,1.2 12.75,5 27,5 7.7,0 16.25,-8.18 21,-7 7.3,1.8 6,2.93 17,0 19.33,-5.15 24,-9 39,-19 8,-12 13,-9 20,-21 11,-2 18,-2 18,-5 z"
         id="path38" />
      <path
         fill="#000000"
         d="m 3595.2,274 c 0,-2.56 -5,-4 -13,-7 -4.25,-3.13 0,-8 -10,-10 -17,0 -11.03,8.98 -21,12 -10,-1 -9,-2 -21,1 -4.15,1.04 -3.9,-10.8 -6,-13 -2.97,-3.06 -5,-3 -10,-8 -3,-11 6,-24 3,-45 -1.34,-9.32 -4.68,-21.56 -9,-33 -2.45,-13.1 -2,-10 -13,-23 -21,-28 -37,-37 -47,-67 -4.96,-4.56 -0.68,12.44 -5,11 -7.68,-2.56 -15.4,-19 -19,-19 -2.9,0 7.5,17.9 4,23 -3,4.4 -17,-7.67 -17,-5 0,3.33 8,16 15,19 -4,4 -9.5,-4.6 -11,-1 7,9 1,11 6,24 5.77,12.05 11,8 16,18 -3.62,4.17 -24.5,-6.8 -26,-3 -1.02,2.53 9.7,2.7 17,10 6,6 1.8,13.48 6,16 5,3 2,6 8,13 6,7 10,-2 8,8 -0.94,4.66 -4,4.34 -4,9 0,5.34 8,-1 6,5 0,2.57 -4,4 -6,8 0,0.72 7.58,-1.47 8,1 1.08,6.53 -7.23,11.8 -4,17 3.27,5.3 12,4 17,3 -5,4 -13,3.95 -13,9 0,9.45 10,13 4,18 2,5 -5,9 -4,13 1,4 5.17,8.47 10,10 3.24,1.03 9,2 6,3 -6,2 -7,-1 -12,3 -4.25,0 -2,-6 -10,-4 -24,4 -60,20 -73,34 -2,3 12,-3 21,-4 -8,3 -20,7 -5,6 11,1 28,0 57,-5 21.46,-0.66 17,7 39,2 11,3 28,6 43,-5 14,-2 15.58,-9.85 33,-23 6,-2 11,-11 14,-17 7.8,-3.53 12,-1 18,-4 z"
         id="path40" />
    </g>
  </g>
  <path
     style="display:inline;fill:#000000"
     d="m 221.65674,267.20265 c -0.73476,-9.26649 33.40033,-4.98871 33.40033,-6.07279 0,-3.03639 -6.13175,-0.59549 -9.10918,0 -7.90483,1.58097 -16.38632,4.49182 -24.29115,6.07279 z"
     id="path218"
     inkscape:label="path218" />
  <path
     style="fill:#e3e2db;stroke-width:3.03639"
     d="m 104.83581,310.47126 c 18.17354,-9.28074 22.8413,-15.94107 11.17197,-15.94107 -4.10972,0 -9.17321,-2.04957 -11.2522,-4.55459 -2.07898,-2.50503 -8.053391,-4.57551 -13.27646,-4.60109 -7.248078,-0.0355 -8.418134,-0.74338 -4.941899,-2.98989 2.505025,-1.61888 9.384268,-2.96433 15.287209,-2.9899 5.90294,-0.0256 18.20033,-2.66186 27.32754,-5.8584 9.12721,-3.19655 22.06044,-6.74988 28.7405,-7.89629 6.68007,-1.14641 17.89186,-4.7722 24.9151,-8.05731 15.70676,-7.34681 44.67893,-10.8037 50.44427,-6.01889 3.17885,2.63821 5.73563,1.69524 11.21347,-4.13566 9.54847,-10.16387 23.94119,-10.14724 32.79706,0.0379 3.75854,4.3227 9.87721,7.59098 14.21135,7.59098 10.50972,0 9.57331,5.15929 -1.37277,7.56346 -4.94111,1.08524 -17.84799,9.23897 -28.68195,18.11939 -16.78555,13.75883 -22.56512,16.64548 -39.08809,19.52283 -10.66448,1.85714 -25.00451,3.37662 -31.86673,3.37662 -6.86221,0 -13.4656,1.59999 -14.67419,3.55552 -1.42999,2.31378 -3.15614,0.98823 -4.94252,-3.79549 l -2.74509,-7.35101 -6.1173,8.35008 c -7.66763,10.46625 -10.48347,10.50871 -13.07152,0.19709 l -2.04628,-8.153 -3.65642,7.33406 c -5.23785,10.50609 -16.1142,14.94873 -36.72245,14.99997 l -18.003737,0.0448 z"
     id="path683" />
  <path
     style="fill:#e3e2db;stroke-width:3.03639"
     d="m 680.86195,433.81223 c -2.92184,-1.63515 -6.75891,-2.07903 -8.52682,-0.9864 -1.7679,1.09262 -5.25886,-0.5414 -7.75768,-3.63116 -3.37355,-4.17134 -4.96112,-4.60789 -6.16604,-1.69552 -1.18016,2.85251 -2.6972,3.03049 -5.56243,0.65256 -2.16684,-1.79831 -5.28284,-2.88013 -6.92446,-2.40403 -3.83759,1.11297 -26.71144,-12.27085 -36.24292,-21.20625 -4.04225,-3.78945 -8.51304,-6.17084 -9.93509,-5.29197 -1.42205,0.87888 -6.20789,0.22075 -10.63519,-1.46252 -6.41956,-2.44071 -7.63092,-4.37979 -5.98188,-9.57544 1.77165,-5.58202 1.11427,-6.26564 -4.59057,-4.77378 -4.96226,1.29765 -6.21052,0.63743 -4.9003,-2.59185 6.01393,-14.82254 6.04259,-14.32389 -0.61833,-10.75907 -9.6792,5.18015 -13.72164,4.18411 -11.86309,-2.92301 1.21201,-4.63473 0.49907,-5.84534 -2.68225,-4.55459 -2.38318,0.96693 -6.5212,2.6406 -9.1956,3.71928 -3.61309,1.45728 -4.56527,0.48201 -3.70563,-3.79549 0.90723,-4.51428 -1.4838,-6.47179 -11.07851,-9.06986 -7.60763,-2.06 -11.87655,-4.85936 -11.28657,-7.40121 5.05904,-21.79613 4.99269,-22.17424 -3.51634,-20.03861 -6.9868,1.75358 -8.05991,1.08539 -8.05991,-5.01865 0,-12.1033 -5.44877,-14.32889 -35.08039,-14.32889 -41.64145,0 -65.87637,-3.02171 -61.97144,-7.72686 1.74499,-2.1026 6.87421,-4.75412 11.39826,-5.89228 l 8.22553,-2.06939 -10.62738,-4.62728 c -5.84505,-2.545 -14.04332,-5.72952 -18.21836,-7.07672 l -7.59098,-2.44944 8.28863,-0.26099 c 4.55875,-0.14354 13.86683,1.97097 20.68462,4.69891 15.88393,6.35548 38.08454,4.26189 62.30829,-5.87588 21.31452,-8.92024 68.53923,-14.76575 90.90208,-11.25192 8.35008,1.31203 17.4833,1.17061 20.29604,-0.31427 8.53321,-4.5048 15.0946,-3.07713 22.4794,4.89119 4.502,4.85775 5.57232,7.59099 2.97256,7.59099 -10.17603,0 -38.33381,20.29735 -36.1289,26.04327 0.84605,2.20476 8.25346,6.23908 16.46092,8.96516 18.92132,6.28465 36.85253,24.70154 45.73543,46.9742 3.66325,9.18509 13.37922,30.12742 21.59105,46.5385 8.21183,16.41109 14.45497,30.31397 13.87365,30.8953 -0.58133,0.58133 -3.44756,-0.2809 -6.3694,-1.91603 z"
     id="path685" />
  <path
     style="fill:#e3e2db;stroke-width:3.03639"
     d="m 1046.5724,462.77922 c -3.7891,-2.65397 -8.7755,-4.10157 -11.081,-3.21688 -2.3054,0.8847 -5.8253,-0.35981 -7.8219,-2.76557 -5.1136,-6.16153 -8.9594,-5.43237 -8.9594,1.69868 0,3.34003 -1.2733,6.07279 -2.8296,6.07279 -3.9708,0 -15.6284,-16.96662 -13.2748,-19.3202 1.064,-1.06401 0.3404,-1.93456 -1.6079,-1.93456 -1.94836,0 -3.60072,2.39116 -3.67193,5.31369 -0.15437,6.33593 -22.89806,-17.81918 -27.45086,-29.1544 -1.82735,-4.5496 -4.50534,-6.51226 -7.3804,-5.40899 -2.48182,0.95236 -4.51239,0.26189 -4.51239,-1.53439 0,-1.79628 -2.04957,-2.47947 -4.55459,-1.5182 -3.62978,1.39288 -4.55459,-1.00733 -4.55459,-11.82071 0,-14.19467 -2.67537,-16.76616 -9.22847,-8.87016 -3.11283,3.75073 -4.39863,3.90383 -6.37526,0.7591 -1.3618,-2.16657 -1.73193,-6.33038 -0.82251,-9.25291 1.19329,-3.83475 -0.0287,-5.31369 -4.39034,-5.31369 -3.32411,0 -10.14296,-4.09913 -15.15301,-9.10918 -5.01005,-5.01005 -10.98129,-9.10918 -13.26943,-9.10918 -2.28813,0 -5.46758,-4.44073 -7.06545,-9.86828 -2.27633,-7.73212 -4.38409,-9.71171 -9.7371,-9.14498 -4.46702,0.47293 -6.83188,-0.91171 -6.83188,-4.00011 0,-3.13285 -1.80554,-4.15035 -5.36183,-3.02163 -3.63405,1.1534 -6.33522,-0.49294 -8.38256,-5.10907 -1.66139,-3.74597 -5.39727,-6.62108 -8.30194,-6.38913 -3.30224,0.26369 -5.28122,-1.72745 -5.28122,-5.31369 0,-3.71115 -2.14333,-5.73541 -6.07278,-5.73541 -3.34004,0 -6.07279,-1.36638 -6.07279,-3.03639 0,-1.67002 -2.04957,-3.0364 -4.55459,-3.0364 -2.50503,0 -4.55459,-1.51844 -4.55459,-3.37432 0,-2.21185 -3.66117,-2.68747 -10.62738,-1.3806 -7.24273,1.35874 -10.62738,0.85843 -10.62738,-1.57092 0,-2.6475 -8.78872,-2.99948 -34.15943,-1.36807 -18.78768,1.2081 -33.47624,1.56201 -32.64123,0.78646 4.65726,-4.3256 79.56393,-35.7315 91.09181,-38.1918 7.51508,-1.60387 30.74349,-4.47455 51.61869,-6.37929 41.94828,-3.82752 51.51387,-4.97622 66.00659,-7.92654 7.50846,-1.52851 10.27731,-0.8447 11.71134,2.8923 1.14462,2.98284 5.60494,4.9843 11.42145,5.12509 l 9.54342,0.231 -9.10918,3.57154 c -14.99493,5.87922 -26.97753,13.15871 -33.4075,20.29521 -3.33609,3.70266 -9.40308,8.0079 -13.48221,9.56719 -7.33278,2.80305 -7.26415,2.93819 6.07279,11.95958 7.41916,5.01847 23.55748,14.72924 35.86295,21.57948 18.30244,10.18866 23.401,14.71728 28.01996,24.88778 3.10551,6.83804 5.67642,14.60153 5.71302,17.25219 0.037,2.65067 5.4052,12.27445 11.93,21.3862 11.5143,16.07964 46.1724,84.62278 42.7886,84.62278 -0.9251,0 -4.7821,-2.17143 -8.5712,-4.82541 z"
     id="path687" />
  <path
     style="fill:#e3e2db;stroke-width:3.03639"
     d="m 1384.7012,442.99894 c -10.3853,-9.11841 -10.733,-9.20154 -10.733,-2.5658 0,6.54059 -0.2665,6.61681 -5.7579,1.64713 -4.466,-4.04161 -6.104,-4.31753 -7.3005,-1.2297 -1.0454,2.69803 -5.0641,0.37366 -12.4693,-7.21201 -6.0097,-6.15622 -15.705,-12.921 -21.5453,-15.03285 -7.9414,-2.87165 -10.6185,-5.59979 -10.6185,-10.82073 0,-3.83956 -1.3235,-6.98101 -2.9411,-6.98101 -1.6176,0 -2.1929,-1.94987 -1.2784,-4.33305 1.2141,-3.16395 -0.04,-3.88764 -4.6499,-2.68225 -3.6093,0.94385 -6.3126,0.19882 -6.3126,-1.73974 0,-1.8648 1.3664,-3.39053 3.0364,-3.39053 1.67,0 3.0364,-1.51451 3.0364,-3.36557 0,-2.07373 -2.9137,-2.63426 -7.591,-1.46035 -6.856,1.72075 -7.591,1.00727 -7.591,-7.36864 0,-8.22789 -0.6624,-8.91935 -5.8731,-6.13064 -8.7934,4.70605 -9.3088,4.18932 -9.3088,-9.33152 0,-11.75436 -0.4337,-12.36589 -7.5101,-10.58983 -6.1528,1.54424 -7.1578,0.96673 -5.5607,-3.19529 1.5342,-3.99788 0.6024,-4.72793 -4.3736,-3.42669 -4.4938,1.17516 -6.7557,-0.001 -7.8188,-4.06653 -1.0807,-4.13258 -4.3134,-5.74989 -11.6484,-5.82763 l -10.1525,-0.10759 7.586,-4.19837 7.5861,-4.19836 -10.6225,-1.00773 c -8.4581,-0.80241 -10.4221,-2.17125 -9.6391,-6.71826 0.8016,-4.65491 -0.4613,-5.43436 -6.8319,-4.21655 -5.3004,1.01323 -7.8152,0.16387 -7.8152,-2.63956 0,-2.93597 -4.3985,-4.13352 -15.182,-4.13352 -13.1577,0 -15.1819,-0.80971 -15.1819,-6.07279 0,-7.76019 -3.5582,-7.76019 -8.4046,0 -3.2973,5.27992 -6.8615,6.0268 -27.2988,5.72056 -12.9285,-0.19372 -21.0984,-0.98032 -18.1555,-1.748 2.943,-0.76767 4.6957,-2.45586 3.895,-3.75153 -0.8008,-1.29567 4.3064,-4.08188 11.3493,-6.19159 7.0429,-2.10971 23.7362,-9.36821 37.0964,-16.13002 32.9771,-16.69032 62.4854,-23.90564 106.8941,-26.13751 23.3033,-1.17117 38.4609,-3.27111 40.8395,-5.6579 5.2243,-5.24239 17.5678,-4.76647 19.6882,0.7591 0.9612,2.50502 3.6511,4.55459 5.9775,4.55459 2.3263,0 4.2297,1.36638 4.2297,3.03639 0,1.67002 -2.0496,3.0364 -4.5546,3.0364 -2.505,0 -4.5546,1.40019 -4.5546,3.11154 0,1.71135 -3.0743,4.47899 -6.8319,6.1503 -3.7575,1.67132 -11.4746,6.41982 -17.1492,10.55223 -5.6745,4.13241 -12.7673,7.51347 -15.7618,7.51347 -11.7081,0 -7.6722,5.84506 15.483,22.42315 13.2634,9.496 27.4504,21.6577 31.5266,27.02599 6.2573,8.24058 27.0053,53.27552 41.1713,89.3652 2.1087,5.37218 5.7366,11.34659 8.062,13.27646 2.3253,1.92987 4.2279,4.97597 4.2279,6.7691 0,1.79314 -4.9537,-1.44852 -11.0082,-7.20367 -7.2252,-6.86792 -9.8909,-8.29114 -7.7568,-4.14141 1.7883,3.47738 5.3756,8.08541 7.9718,10.24007 2.5962,2.15466 4.7204,5.11663 4.7204,6.58216 0,5.0415 -5.8839,2.64494 -16.5945,-6.75912 z"
     id="path689" />
  <path
     style="fill:#e3e2db;stroke-width:3.03639"
     d="m 1734.0255,387.17043 c -10.7709,-9.86576 -11.5791,-10.12806 -13.1146,-4.25618 -2.2056,8.43419 -6.7564,1.38206 -6.8202,-10.56871 -0.037,-6.94976 -0.8744,-8.03475 -4.1213,-5.34004 -2.2412,1.86002 -4.8492,2.60754 -5.7956,1.66117 -0.9463,-0.94637 -2.6957,1.35132 -3.8873,5.10599 l -2.1667,6.82668 -3.8555,-7.20397 c -2.1205,-3.96217 -3.1642,-9.32237 -2.3193,-11.91153 0.8448,-2.58917 -1.9643,-0.60845 -6.2424,4.4016 l -7.7785,9.10918 -2.056,-9.86828 c -2.3505,-11.28161 -3.4149,-11.69194 -12.9691,-4.99988 -6.5514,4.58877 -7.0466,4.50157 -8.6208,-1.5182 -0.9517,-3.63931 -4.1301,-6.38659 -7.3887,-6.38659 -4.3379,0 -5.7187,-2.21349 -5.7187,-9.16703 0,-8.26196 -0.7495,-8.97893 -7.591,-7.26181 -6.6298,1.66397 -7.591,0.91195 -7.591,-5.93903 0,-7.05824 -0.8932,-7.66561 -8.9139,-6.06146 -7.9328,1.58657 -8.7294,1.07689 -7.2369,-4.6305 2.097,-8.0189 1.9663,-8.01042 -17.7071,1.14803 -19.0301,8.85899 -29.79,10.2432 -23.8335,3.06606 3.1635,-3.8118 2.6997,-4.55459 -2.8438,-4.55459 -3.6431,0 -5.7794,-1.36638 -4.7472,-3.03639 2.476,-4.00636 -0.306,-3.79943 -16.9863,1.26348 -21.3408,6.47746 -22.5689,1.71177 -3.2842,-12.74453 35.6353,-26.71324 96.4513,-49.08669 134.1352,-49.34677 9.1851,-0.0634 20.1161,-2.06798 24.2912,-4.45465 9.4775,-5.41785 17.7084,-5.63928 28.2167,-0.7591 8.1331,3.77715 10.9719,8.35009 5.1836,8.35009 -3.3283,0 -10.4792,5.76249 -24.4919,19.73655 -8.0583,8.03604 -8.4617,9.21616 -3.4241,10.01716 7.9877,1.27009 17.3228,19.8164 21.7039,43.11973 2.0408,10.85511 7.8463,29.71356 12.9011,41.90767 5.0548,12.19411 8.597,22.76475 7.8714,23.49032 -0.7256,0.72556 -6.4844,-3.41195 -12.7975,-9.19447 z"
     id="path691" />
  <path
     style="fill:#e3e2db;stroke-width:3.03639"
     d="m 2060.3429,347.84757 c -1.9966,-2.40576 -5.5683,-3.63037 -7.9372,-2.72136 -2.3688,0.90901 -5.1478,-0.53858 -6.1756,-3.21688 -1.0278,-2.6783 -4.3467,-4.86963 -7.3753,-4.86963 -6.0515,0 -11.0996,-15.19893 -7.2869,-21.93977 1.7542,-3.10163 1.3771,-3.11633 -1.9005,-0.0741 -5.6761,5.26847 -8.8936,4.74039 -9.2501,-1.51819 -0.1984,-3.48357 -1.1031,-2.69923 -2.6268,2.27729 l -2.3241,7.59099 -4.5675,-10.29924 c -2.5121,-5.66458 -5.0932,-8.72206 -5.7358,-6.79441 -0.6792,2.03759 -11.3906,4.29311 -25.5868,5.38784 -20.895,1.61131 -25.1917,1.10987 -29.7766,-3.47498 -4.2874,-4.2874 -8.4311,-4.99405 -20.7378,-3.5365 -15.1462,1.79384 -15.2977,1.73073 -9.9726,-4.15347 6.3044,-6.96624 2.57,-7.7926 -5.9825,-1.32382 -3.2417,2.45191 -9.2161,4.45802 -13.2765,4.45802 -6.0932,0 -6.7464,-0.76628 -3.7408,-4.38782 7.228,-8.70929 32.5652,-22.81948 48.8206,-27.18802 14.941,-4.01533 15.5495,-4.4812 6.0876,-4.66106 l -10.5127,-0.19982 10.5127,-9.26108 c 32.3402,-28.48995 65.9911,-42.35762 102.7837,-42.35762 17.4172,0 21.4888,3.62218 12.6137,11.22129 -6.0799,5.20581 -8.0143,16.95944 -4.3589,26.4853 1.3242,3.45089 5.9207,4.80293 16.3284,4.80293 9.1716,0 15.8719,1.67078 18.2653,4.55459 2.0789,2.50502 7.3702,4.74066 11.7582,4.96809 l 7.9783,0.4135 -7.4902,1.40215 c -4.1196,0.77118 -10.7942,4.00105 -14.8323,7.17748 -4.0382,3.17643 -12.0977,5.77534 -17.9099,5.77534 h -10.5678 l 2.0524,17.45926 c 1.1288,9.60259 4.1478,23.11763 6.7089,30.03342 2.5611,6.91579 4.1225,15.11405 3.4696,18.21836 -0.9959,4.73618 -2.0433,4.17874 -6.5103,-3.46497 l -5.3233,-9.10918 1.2483,8.35008 c 1.3739,9.18956 -1.2713,10.72068 -6.8689,3.97598 z"
     id="path693" />
  <path
     style="fill:#e3e2db;stroke-width:3.03639"
     d="m 2360.905,323.71821 c -10.2273,-2.72838 -13.9703,-5.37562 -15.2469,-10.78326 -1.6817,-7.12411 -1.7167,-7.11428 -5.8206,1.63692 l -4.1287,8.80406 -2.818,-8.13003 c -2.5267,-7.28971 -3.9763,-7.96936 -14.0248,-6.5756 -6.1637,0.85493 -15.1682,2.80547 -20.01,4.33453 -4.8417,1.52907 -12.3568,2.72663 -16.7001,2.66127 -7.4583,-0.11225 -7.3066,-0.39887 2.7304,-5.15964 l 10.6273,-5.04079 -10.372,-1.14311 -10.3721,-1.1431 13.1241,-7.45462 c 7.2182,-4.10004 20.0839,-9.66614 28.5904,-12.36911 15.2607,-4.84913 26.0938,-11.71105 26.0938,-16.52839 0,-1.35877 -2.2738,-1.59799 -5.0527,-0.53159 -3.6003,1.38155 -4.3613,0.82016 -2.6474,-1.95298 1.4049,-2.27328 0.7462,-4.91724 -1.584,-6.35736 -3.2769,-2.02526 -3.2457,-3.36141 0.1749,-7.48293 3.5378,-4.26284 3.5084,-5.44856 -0.1953,-7.88409 -3.6207,-2.38093 -3.2017,-3.83903 2.4726,-8.60537 9.2764,-7.79208 8.6019,-9.46317 -3.0364,-7.52278 l -9.8683,1.64528 10.6274,-9.66161 10.6274,-9.66161 -12.9054,1.57879 c -7.3433,0.89835 -12.1735,0.39463 -11.2073,-1.16876 0.934,-1.51116 -1.1153,-2.74756 -4.5539,-2.74756 -3.4386,0 -6.252,-1.45845 -6.252,-3.24101 0,-1.92288 -2.6244,-2.40803 -6.453,-1.19289 -11.4681,3.63982 -3.1729,-4.31112 13.1018,-12.55814 27.8667,-14.12113 81.4066,-21.78584 81.4066,-11.65408 0,6.12888 -5.1352,15.80715 -14.1148,26.60179 -3.927,4.72068 -7.1399,9.53978 -7.1399,10.7091 0,1.16932 5.4655,9.39995 12.1456,18.29028 6.68,8.89033 12.1455,17.93506 12.1455,20.09939 0,2.16434 4.8299,8.17584 10.7331,13.35889 11.7745,10.33814 22.5977,11.85195 34.8128,4.86914 10.3356,-5.90832 12.9839,-5.63611 22.1558,2.27729 l 7.9183,6.83189 -12.234,5.91568 c -6.7286,3.25362 -14.1807,9.68029 -16.5601,14.28149 -2.608,5.04335 -8.2433,9.48561 -14.1895,11.18542 -5.4249,1.55078 -17.0875,5.71354 -25.9169,9.25056 -17.8286,7.14205 -26.1303,7.54172 -46.0837,2.21864 z"
     id="path695" />
  <path
     style="fill:#e3e2db;stroke-width:3.03639"
     d="m 2646.2171,327.93052 c 0,-1.67002 -2.0495,-3.03639 -4.5546,-3.03639 -10.7276,0 -3.8807,-6.30878 26.556,-24.46877 12.5263,-7.4738 22.3426,-15.81704 25.2699,-21.47784 5.2573,-10.16646 3.9823,-17.81766 -2.9691,-17.81766 -9.3591,0 -7.6152,-6.06278 3.419,-11.8865 6.3187,-3.33491 9.8695,-6.12386 7.8907,-6.19767 -1.9788,-0.0738 -7.3016,-1.54238 -11.8285,-3.26349 l -8.2307,-3.12929 6.5148,-6.93468 c 8.5082,-9.0565 8.2185,-13.04768 -1.3092,-18.03976 l -7.8241,-4.09942 12.3787,-4.86247 c 14.672,-5.76335 15.8936,-10.87259 3.2062,-13.41007 -11.2254,-2.24508 -13.4387,-5.25365 -7.4943,-10.18703 5.9402,-4.92994 5.9577,-13.31882 0.023,-11.04147 -3.1573,1.21159 -5.2458,-1.18047 -7.0068,-8.02522 -2.1357,-8.30134 -4.0629,-9.89636 -12.9612,-10.72688 -16.7867,-1.5668 -16.8712,-5.56843 -0.2951,-13.9682 10.8805,-5.51356 20.2544,-7.82917 31.6936,-7.82917 22.511,0 51.2302,5.66692 57.591,11.36398 6.9439,6.21929 6.5923,19.56127 -1.0609,40.25471 -12.8056,34.62511 -13.4321,43.12079 -4.5623,61.87001 13.0369,27.55763 41.3677,39.73659 62.8779,27.0302 8.2865,-4.89497 9.4769,-4.90602 18.6869,-0.17356 5.4101,2.77994 12.5693,5.65722 15.9093,6.39397 5.8436,1.28897 5.834,1.35282 -0.2539,1.69175 -3.4796,0.19372 -12.0675,5.65215 -19.0841,12.12984 -17.6289,16.27489 -43.6874,25.41846 -67.7885,23.78601 -10.2493,-0.69422 -23.8422,0.0595 -30.2065,1.67491 -15.9827,4.05684 -32.6789,0.51014 -35.6706,-7.57737 -2.3767,-6.42473 -2.3869,-6.42358 -4.1904,0.47308 -1.1786,4.50684 -3.1157,6.10525 -5.5647,4.59169 -2.6201,-1.61931 -3.1701,-0.79303 -1.8179,2.73088 1.5583,4.06082 0.02,5.06595 -7.834,5.12021 -5.3752,0.0371 -13.189,2.73951 -17.364,6.00528 -8.4838,6.6361 -12.1456,7.55155 -12.1456,3.03639 z"
     id="path697" />
  <path
     style="fill:#e3e2db;stroke-width:3.03639"
     d="m 3110.7854,334.11851 c -4.1751,-1.40044 -14.0384,-2.68246 -21.9186,-2.84893 -11.0862,-0.23419 -13.9514,-1.28296 -12.6648,-4.63571 1.2386,-3.22782 -0.063,-3.88169 -5.104,-2.56352 -4.0594,1.06156 -8.1035,0.0618 -10.1081,-2.49884 -2.2615,-2.88886 -10.7015,-4.44567 -26.1144,-4.81696 -12.5251,-0.30173 -26.8721,-1.8376 -31.8821,-3.41305 l -9.1092,-2.86446 9.1092,-3.54443 c 30.0372,-11.68763 50.169,-23.4558 53.3777,-31.20228 1.8753,-4.5274 6.6875,-10.37932 10.6936,-13.00425 7.7042,-5.04795 9.4708,-13.37675 3.9982,-18.84932 -2.3566,-2.35666 -2.1665,-5.07771 0.6724,-9.62349 3.4516,-5.52698 3.0951,-7.14176 -2.7871,-12.62184 -8.0647,-7.51337 -9.4241,-26.4648 -2.1001,-29.27531 2.9316,-1.12494 3.9762,-3.89003 2.8318,-7.49569 -1.3761,-4.33574 -0.2998,-5.7132 4.4641,-5.7132 8.6155,0 7.8673,-5.78298 -2.3657,-18.28564 -15.9587,-19.49818 -19.81,-30.8165 -9.5752,-28.14006 9.6551,2.52488 6.8647,-2.96784 -6.041,-11.89135 -12.2135,-8.44484 -24.5031,-26.701975 -17.9742,-26.701975 2.0623,0 2.8801,-3.077409 2.0172,-7.590984 -1.4635,-7.656133 4.4276,-10.875606 8.3342,-4.554591 1.0321,1.670017 3.4304,3.036394 5.3294,3.036394 1.8991,0 -0.8391,-4.440726 -6.0848,-9.86828 -11.4646,-11.861915 -15.2439,-21.141515 -13.4866,-33.114671 1.2769,-8.699794 1.4288,-8.772532 5.6719,-2.714739 5.3411,7.625518 10.0603,8.048192 10.17,0.910883 0.06,-3.914669 2.3375,-2.593582 8.6498,5.017687 4.7125,5.682257 10.0668,9.405158 11.8985,8.273112 1.9542,-1.207749 8.6079,5.815394 16.1023,16.996168 7.0245,10.479937 20.2196,28.37796 29.3224,39.773386 14.0168,17.54707 16.2157,21.96309 14.3634,28.84574 -3.2963,12.24865 -2.4153,107.17298 1.079,116.25483 3.5857,9.31963 32.8827,26.99148 44.7474,26.99148 4.3544,0 11.3913,-2.73276 15.6374,-6.07279 9.6533,-7.59322 17.4076,-7.71218 24.7402,-0.37955 3.1313,3.13128 9.6216,7.12254 14.4229,8.86947 8.6015,3.12962 8.6182,3.1812 1.1386,3.51532 -4.6472,0.2076 -12.8898,5.62836 -21.2547,13.97815 -16.6492,16.61904 -34.2016,25.50455 -57.0966,28.90389 -9.5123,1.41235 -21.3942,3.21991 -26.4043,4.01678 -5.01,0.7969 -12.5251,0.30303 -16.7001,-1.09738 z"
     id="path699" />
  <path
     style="fill:#ff6600;stroke-width:3.03639"
     d="m 3394.5461,322.08753 c 0.9541,-1.54362 -0.6733,-3.38734 -3.6162,-4.09714 -3.4446,-0.83077 3.3031,-5.42591 18.9402,-12.8982 17.9925,-8.59781 28.6215,-11.74041 40.9914,-12.11966 22.8023,-0.6991 23.8527,-1.09589 15.357,-5.8012 -6.5997,-3.65523 -7.4662,-6.29161 -7.8731,-23.95414 -0.4067,-17.65066 0.246,-20.0829 5.8977,-21.97994 6.0268,-2.02296 5.963,-2.20483 -1.2361,-3.52292 -10.953,-2.00541 -13.2097,-5.35927 -8.955,-13.30917 2.6189,-4.89346 2.7554,-7.34528 0.4518,-8.11314 -1.8156,-0.60523 -2.6016,-2.92349 -1.7466,-5.1517 0.8551,-2.2282 0.2234,-4.87404 -1.4037,-5.87963 -1.6271,-1.0056 -2.1989,-4.73256 -1.2706,-8.28213 1.082,-4.13784 -0.075,-7.44035 -3.225,-9.20304 -2.702,-1.5121 -7.1205,-7.82959 -9.819,-14.03886 -2.6985,-6.20928 -6.1137,-13.59151 -7.5893,-16.40496 -2.0651,-3.93717 -1.2315,-5.33588 3.6191,-6.07279 5.9013,-0.89653 5.702,-1.58332 -3.1345,-10.79806 -9.8202,-10.24062 -12.9655,-26.37388 -5.6412,-28.93583 2.7299,-0.95487 2.1715,-3.15717 -1.9888,-7.84402 -5.7145,-6.437787 -5.7053,-6.516401 0.7591,-6.516401 4.9554,0 6.5434,-1.84228 6.5434,-7.590984 V 81.98263 l 6.3764,6.376427 c 4.569,4.568948 7.3067,5.446131 9.6584,3.094527 2.3516,-2.351604 5.1059,-0.07074 9.7167,8.046443 3.5392,6.230593 15.9101,22.699133 27.491,36.596773 27.1088,32.53217 36.4164,60.36282 31.2359,93.39842 -2.3652,15.08304 -1.9729,18.17329 3.0127,23.72894 3.1527,3.51313 6.5761,8.77866 7.6075,11.70119 2.784,7.88812 27.3448,7.36244 35.4663,-0.7591 3.3401,-3.34003 8.0743,-6.07278 10.5206,-6.07278 2.4462,0 5.9103,2.73275 7.6978,6.07278 1.7875,3.34004 5.5931,6.1594 8.4569,6.26526 4.1984,0.15519 4.0018,0.68064 -1.0156,2.7131 -3.4223,1.38635 -14.3534,10.34716 -24.2911,19.9129 -9.9378,9.56574 -25.2198,20.67203 -33.96,24.68064 -15.1949,6.96901 -17.2765,7.15713 -47.5041,4.29304 -20.36,-1.92912 -37.9412,-1.95895 -49.3912,-0.0838 -22.5662,3.69565 -38.3741,3.75695 -36.1388,0.14013 z"
     id="path701" />
  <path
     style="fill:#e3e2db;fill-opacity:1;stroke-width:2.14705"
     d="m 3395.7792,320.30793 c -1.9779,-3.69572 -1.5771,-4.9954 2.3997,-7.78082 10.9084,-7.64055 37.3824,-16.82774 51.0643,-17.72069 7.6757,-0.50096 16.2828,-1.3943 19.1269,-1.98521 l 5.1711,-1.07438 -6.7814,-6.19383 c -6.532,-5.96612 -6.7813,-6.82701 -6.7813,-23.41577 0,-15.10379 0.5355,-17.50853 4.3542,-19.55225 5.5145,-2.95125 3.9828,-5.49304 -4.3096,-7.15151 -6.9014,-1.38028 -8.137,-5.04263 -4.1898,-12.41819 1.5446,-2.88606 1.5898,-5.14123 0.1381,-6.89045 -1.1869,-1.43013 -2.823,-7.89005 -3.6359,-14.35537 -0.9627,-7.65792 -3.1735,-13.626 -6.3429,-17.12277 -4.9979,-5.51404 -12.2213,-18.81332 -14.8686,-27.37494 -1.0929,-3.53484 -0.6248,-4.83087 1.7449,-4.83087 6.1435,0 5.6174,-3.91377 -1.7041,-12.67697 -9.1925,-11.00268 -11.6126,-20.44523 -6.6465,-25.93266 3.3135,-3.66138 3.3236,-4.3768 0.1315,-9.24863 -3.269,-4.989163 -3.2191,-5.343218 0.9051,-6.421718 2.635,-0.689087 4.3648,-2.922832 4.3648,-5.636548 0,-5.263547 1.6676,-5.533034 7.4021,-1.196181 2.2998,1.739302 5.8481,2.633402 7.8851,1.986888 2.6727,-0.848284 5.6433,1.688861 10.6724,9.114909 3.8328,5.65972 13.449,18.50288 21.3693,28.54036 20.274,25.6936 27.3296,37.53071 32.5106,54.54258 3.8922,12.78044 4.3286,18.06249 3.168,38.34712 l -1.346,23.52504 6.9412,9.96161 c 3.8177,5.47889 7.9074,10.67145 9.0883,11.53903 3.733,2.7426 23.3947,1.70878 28.9852,-1.52406 15.2499,-8.81846 14.8692,-8.77048 20.5949,-2.59559 2.9389,3.16955 6.4856,5.76282 7.8815,5.76282 1.3958,0 0.149,1.66163 -2.7708,3.69251 -2.9197,2.03088 -13.3676,10.62084 -23.2175,19.0888 -9.8499,8.46797 -22.8933,18.1589 -28.9853,21.53538 l -11.0762,6.13909 -48.3088,0.0527 c -26.5698,0.029 -53.7652,0.87503 -60.4343,1.88007 -11.0598,1.66669 -12.3344,1.4373 -14.5002,-2.60951 z"
     id="path1677" />
  <path
     style="fill:#e3e2db;fill-opacity:1;stroke-width:0.268382"
     d="m 3497.1494,323.37661 c -8.4379,-0.58733 -17.002,-1.46392 -17.097,-1.74998 -0.071,-0.21491 5.318,-0.33575 19.4356,-0.4358 10.744,-0.0761 19.576,-0.10211 19.6267,-0.0577 0.1995,0.17463 -4.4242,1.48972 -6.6217,1.88334 -2.8865,0.51704 -10.5167,0.69615 -15.3436,0.36016 z"
     id="path1732" />
  <path
     style="fill:#e3e2db;fill-opacity:1;stroke-width:0.268382"
     d="m 3430.6226,159.35171 c -2.1142,-4.44554 -2.2939,-5.02306 -1.8596,-5.97625 0.4448,-0.97628 1.4373,-1.4217 4.4621,-2.00257 1.4295,-0.2745 2.8104,-0.58213 3.0687,-0.68361 0.2778,-0.10914 0.4696,-0.0615 0.4696,0.11654 0,0.5864 -1.6676,1.30297 -3.4385,1.47753 -2.0714,0.20419 -2.34,0.32825 -2.6872,1.24149 -0.3623,0.95283 0.013,2.90544 1.1589,6.02815 1.3046,3.55537 1.3225,3.62316 0.9585,3.62316 -0.1725,0 -1.1321,-1.721 -2.1325,-3.82444 z"
     id="path1734" />
  <path
     style="fill:#e3e2db;fill-opacity:1;stroke-width:0.268382"
     d="m 3431.7683,142.17409 c -4.1229,-4.31447 -5.9505,-6.79573 -7.9673,-10.8167 -2.9685,-5.91833 -4.0249,-11.31306 -2.9948,-15.29296 0.4988,-1.92729 1.4939,-3.24777 3.1267,-4.14921 2.0161,-1.11307 2.1686,-1.31043 2.0215,-2.61529 -0.1612,-1.43089 -1.2083,-3.02722 -4.4456,-6.77807 -2.8148,-3.26128 -3.5805,-4.469194 -3.0435,-4.801111 0.1943,-0.120067 1.8398,-0.297776 3.6568,-0.39491 3.5549,-0.190047 4.7709,-0.472554 5.7166,-1.328112 0.3315,-0.299956 0.6938,-0.454403 0.8049,-0.343215 0.3302,0.330179 -1.3696,1.659564 -2.7807,2.174801 -0.721,0.263229 -1.84,0.702334 -2.4867,0.97579 -1.1488,0.485734 -1.1727,0.521154 -1.0365,1.536937 0.087,0.64598 0.8155,2.11657 1.9244,3.88311 3.3171,5.28425 3.3327,5.94415 0.2233,9.40234 -1.993,2.21657 -2.8799,5.43361 -2.4505,8.88881 0.6313,5.0791 3.2689,10.09447 9.3589,17.7958 1.5499,1.95998 2.8583,3.67918 2.9075,3.82046 0.2491,0.71523 -0.6264,0.0389 -2.535,-1.95847 z"
     id="path1736" />
  <path
     style="fill:#e3e2db;fill-opacity:1;stroke-width:0.268382"
     d="m 3512.5326,232.92475 c 1.1116,-16.48319 1.2446,-30.191 0.3428,-35.35084 -1.8619,-10.65407 -6.6414,-23.95674 -12,-33.39965 -4.5452,-8.0095 -11.1326,-17.45242 -20.9967,-30.09832 -2.1623,-2.77212 -3.9315,-5.14841 -3.9315,-5.28063 0,-0.13223 0.118,-0.24042 0.2622,-0.24042 0.3437,0 9.381,11.04566 13.4433,16.43086 15.2134,20.16761 23.0895,38.40761 25.2382,58.44767 0.432,4.02877 0.4323,14.26239 5e-4,18.51835 -0.6524,6.43136 -1.7468,13.23251 -2.151,13.36662 -0.3145,0.10437 -0.3492,-0.29573 -0.2077,-2.39364 z"
     id="path1738" />
  <path
     style="fill:#e3e2db;fill-opacity:1;stroke-width:0.268382"
     d="m 3446.4866,187.34412 c -2.0608,-1.49282 -5.526,-6.17137 -7.663,-10.34631 -1.1899,-2.32471 -4.4756,-9.55487 -4.4756,-9.84866 0,-0.79414 0.729,0.22363 2.2004,3.07202 2.4569,4.7561 4.8774,8.69257 7.3272,11.91595 4.2667,5.61412 4.5186,5.99854 3.9318,5.99854 -0.1255,0 -0.7199,-0.35619 -1.3208,-0.79154 z"
     id="path1740" />
  <path
     style="fill:#e3e2db;fill-opacity:1;stroke-width:0.268382"
     d="m 3451.4408,205.09552 c -0.5487,-0.56194 -1.1242,-1.43754 -1.2789,-1.94576 -0.5833,-1.91656 -0.094,-7.67174 0.632,-7.42981 0.4082,0.13607 0.6325,1.07402 1.2669,5.29804 0.2993,1.99273 0.6126,3.95527 0.6962,4.3612 0.2062,1.00121 -0.1329,0.92813 -1.3162,-0.28367 z"
     id="path1742" />
  <path
     style="fill:#e3e2db;fill-opacity:1;stroke-width:0.268382"
     d="m 3454.6534,216.24691 c -1.2565,-0.65273 -2.0531,-1.88528 -2.0544,-3.17879 0,-1.21795 0.5068,-2.71115 0.8801,-2.58671 0.1559,0.0519 0.6101,1.14245 1.0094,2.42334 0.3992,1.28088 0.9222,2.62849 1.1622,2.99469 0.7381,1.12645 0.5969,1.17563 -0.9973,0.34747 z"
     id="path1744" />
  <path
     style="fill:#e3e2db;fill-opacity:1;stroke-width:0.268382"
     d="m 3463.2264,237.63564 c -5.7513,-1.23164 -8.0536,-2.14852 -9.749,-3.88259 -1.9382,-1.98249 -1.6735,-4.49492 1.0628,-10.08781 0.6583,-1.34555 1.2643,-2.70423 1.3467,-3.0193 0.1768,-0.67626 0.7368,-0.77141 0.7368,-0.1252 0,0.2462 -0.5928,1.72566 -1.3173,3.28768 -2.3301,5.02352 -2.4017,7.61256 -0.264,9.54385 1.2966,1.17141 2.2097,1.55161 5.8102,2.41927 3.0367,0.73182 5.7012,1.79191 5.7012,2.26829 0,0.15578 -0.091,0.26949 -0.2013,0.25269 -0.1107,-0.0168 -1.5174,-0.31239 -3.1261,-0.65688 z"
     id="path1746" />
  <path
     style="fill:#e3e2db;fill-opacity:1;stroke-width:0.316788"
     d="m 3436.43,90.468945 c -3.3382,-2.208915 -4.57,-2.638019 -5.6122,-1.955121 -0.4228,0.277048 -0.8451,0.503725 -0.9383,0.503725 -0.093,0 -0.1696,-1.425548 -0.1696,-3.167885 0,-1.742336 0.097,-3.167884 0.2155,-3.167884 0.2318,0 9.3765,8.87076 9.5522,9.266062 0.2443,0.549763 -0.6039,0.138179 -3.0476,-1.478897 z"
     id="path1748" />
  <path
     style="fill:#e3e2db;fill-opacity:1;stroke-width:0.316788"
     d="m 3454.6461,100.34274 c -1.8853,-2.641871 -4.2252,-5.215496 -5.7387,-6.311863 -0.9516,-0.689364 -1.5887,-0.895079 -2.772,-0.895079 -0.845,0 -1.5364,-0.117705 -1.5364,-0.261567 0,-0.346248 1.2428,-1.465744 2.142,-1.929481 1.0633,-0.548373 2.6774,0.343967 4.3613,2.411035 1.2721,1.561705 5.5346,8.319705 5.5346,8.774935 0,0.62247 -0.7539,-0.0546 -1.9908,-1.78798 z"
     id="path1750" />
  <path
     style="fill:#e3e2db;fill-opacity:1;stroke-width:0.065872"
     d="m 3476.4755,129.91604 c -2.7861,-3.51053 -8.0211,-10.34646 -11.8167,-15.43051 -5.0262,-6.73227 -9.3452,-12.76633 -9.2242,-12.88725 0.025,-0.0248 0.2375,0.13971 0.4727,0.36555 0.3118,0.29948 0.4679,0.4049 0.5766,0.38947 0.1185,-0.0168 0.1479,-0.0616 0.1435,-0.21877 0,-0.10869 -0.028,-0.24949 -0.056,-0.31289 -0.03,-0.0673 -0.023,-0.11528 0.015,-0.11528 0.037,0 0.3546,0.43723 0.7069,0.97161 3.9197,5.94566 11.0403,15.4877 18.7527,25.12976 1.0068,1.25875 1.8306,2.30364 1.8306,2.32199 0,0.11822 -0.1929,-0.0619 -0.846,-0.79006 -0.4061,-0.45287 -0.78,-0.8234 -0.8308,-0.8234 -0.101,0 -0.2994,0.17391 -0.2994,0.26241 0,0.0305 0.2372,0.38665 0.527,0.79154 0.2898,0.4049 0.527,0.74839 0.527,0.76332 0,0.11596 -0.1805,-0.0414 -0.479,-0.41749 z"
     id="path1752" />
  <path
     style="fill:#e3e2db;fill-opacity:1;stroke-width:0.065872"
     d="m 3442.6352,93.428009 c -1.289,-0.206719 -2.4822,-0.569315 -3.5101,-1.066603 -1.0078,-0.487562 -1.9429,-1.129327 -1.6444,-1.128567 0.027,6.9e-5 0.3013,0.152411 0.6093,0.338538 0.6576,0.39747 1.1725,0.647872 1.3339,0.648773 0.2209,0.0012 0.1163,-0.259123 -0.28,-0.696342 -0.2173,-0.239867 -0.3952,-0.462776 -0.3952,-0.495353 0,-0.09324 0.1004,-0.0698 0.2711,0.06327 0.7429,0.579283 1.7776,1.149788 2.6086,1.43826 0.4427,0.153646 0.6162,0.17785 1.2702,0.177134 0.8252,-9.05e-4 1.2151,-0.105586 1.8517,-0.497149 0.4114,-0.253001 0.4438,-0.235801 0.1756,0.09316 -0.2097,0.257199 -0.3805,0.525167 -0.3805,0.596994 0,0.04758 0.3426,0.163756 0.6179,0.20955 0.6697,0.111383 -0.4558,0.363632 -1.573,0.35257 -0.4348,-0.0043 -0.8646,-0.01971 -0.9551,-0.03424 z"
     id="path1754" />
  <path
     style="fill:#e3e2db;fill-opacity:1;stroke-width:0.065872"
     d="m 3428.7024,95.709502 c -0.038,-0.120533 -0.078,-0.135271 -0.269,-0.09945 -0.1233,0.02313 -0.2242,0.02596 -0.2242,0.0063 0,-0.01967 0.1003,-0.176639 0.2228,-0.348814 0.475,-0.667256 0.8013,-1.542617 0.9896,-2.654095 0.1145,-0.675968 0.2332,-2.261008 0.2354,-3.142792 0,-0.531114 0.034,-0.616671 0.1778,-0.472405 0.051,0.0508 0.1665,0.02266 0.4062,-0.09881 0.1844,-0.09342 0.3514,-0.169847 0.3713,-0.169847 0.02,0 -0.036,0.111159 -0.1243,0.24702 -0.3679,0.567024 -0.4943,1.301733 -0.6258,3.639427 -0.052,0.928415 -0.091,1.17813 -0.263,1.712672 -0.2008,0.622791 -0.6288,1.449533 -0.7751,1.497265 -0.042,0.01377 -0.097,-0.03863 -0.1217,-0.11646 z"
     id="path1756" />
  <path
     style="fill:#e3e2db;fill-opacity:1;stroke-width:0.065872"
     d=""
     id="path1758" />
  <path
     style="fill:#e3e2db;fill-opacity:1;stroke-width:0.065872"
     d="m 3425.1791,112.87166 c 0.045,-0.0543 0.1116,-0.0988 0.1479,-0.0988 0.037,0 0.03,0.0437 -0.016,0.0988 -0.045,0.0543 -0.1116,0.0988 -0.1479,0.0988 -0.037,0 -0.03,-0.0437 0.016,-0.0988 z"
     id="path1762" />
  <path
     style="fill:#e3e2db;fill-opacity:1;stroke-width:0.065872"
     d=""
     id="path1764" />
  <path
     style="fill:#e3e2db;fill-opacity:1;stroke-width:0.065872"
     d=""
     id="path1766" />
  <path
     style="fill:#e3e2db;fill-opacity:1;stroke-width:0.065872"
     d=""
     id="path1768" />
  <path
     style="fill:#e3e2db;fill-opacity:1;stroke-width:0.065872"
     d=""
     id="path1770" />
  <path
     style="fill:#e3e2db;fill-opacity:1;stroke-width:0.065872"
     d=""
     id="path1772" />
  <path
     style="fill:#e3e2db;fill-opacity:1;stroke-width:0.065872"
     d=""
     id="path1774" />
  <path
     style="fill:#e3e2db;fill-opacity:1;stroke-width:0.065872"
     d=""
     id="path1776" />
  <path
     style="fill:#e3e2db;fill-opacity:1;stroke-width:0.065872"
     d=""
     id="path1778" />
  <path
     style="fill:#e3e2db;fill-opacity:1;stroke-width:0.065872"
     d="m 3426.4534,108.06017 c -0.021,-0.0559 -0.023,-0.11816 0,-0.13834 0.058,-0.0577 0.1772,0.0402 0.1772,0.14507 0,0.12639 -0.1257,0.12156 -0.1749,-0.007 z"
     id="path1780" />
  <path
     style="fill:#e3e2db;fill-opacity:1;stroke-width:0.147948"
     d="m 3399.9571,324.59325 c -2.2034,-0.14786 -3.8767,-0.47801 -4.6693,-0.9213 -0.8616,-0.48187 -0.9535,-0.70001 -0.6506,-1.54497 0.3388,-0.94522 0.3204,-1.30874 -0.1025,-2.02835 -0.539,-0.91731 -1.6126,-1.60902 -3.2244,-2.07758 -0.4586,-0.13332 -0.9134,-0.33831 -1.0107,-0.45551 -1.0608,-1.27827 5.2169,-5.39165 16.937,-11.0976 15.978,-7.779 25.9382,-11.33468 35.5887,-12.70483 3.3479,-0.47532 5.5569,-0.63847 11.1701,-0.82494 11.8008,-0.39204 15.9882,-0.80368 16.9013,-1.66152 0.4297,-0.40373 0.4212,-0.58107 -0.055,-1.14713 -0.495,-0.58825 -1.5381,-1.29204 -4.0487,-2.73165 -2.6061,-1.4944 -3.6168,-2.22773 -4.7009,-3.41083 -1.9544,-2.13286 -2.8124,-5.07336 -3.2809,-11.24479 -0.4229,-5.57063 -0.5961,-18.88976 -0.2928,-22.51704 0.394,-4.71354 1.4175,-6.8826 3.8227,-8.10138 1.0088,-0.51122 4.4731,-1.73677 4.5857,-1.62229 0.1436,0.14593 -1.001,1.03375 -2.4104,1.86975 -1.73,1.02616 -2.4564,1.68592 -3.0067,2.73116 -1.2888,2.44739 -1.538,5.26901 -1.5396,17.43138 0,10.96946 0.2119,13.77371 1.2415,16.32283 0.946,2.3421 2.1865,3.73789 8.2118,9.23959 2.1383,1.95256 3.8665,3.57149 3.8404,3.59762 -0.107,0.10698 -5.1224,1.10103 -6.9485,1.37718 -3.3667,0.50913 -8.8514,1.05746 -15.7226,1.57184 -1.7088,0.12792 -4.0202,0.35997 -5.1363,0.51566 -10.7213,1.49546 -27.5551,6.92493 -39.0527,12.59576 -6.2056,3.06075 -10.3485,5.81551 -11.3717,7.56148 -0.4188,0.71458 -0.4495,0.86012 -0.3934,1.86007 0.054,0.95828 0.1576,1.27927 0.8901,2.75153 2.1353,4.29138 3.5374,4.6538 12.8988,3.33425 3.9164,-0.55204 6.9513,-0.81379 12.6496,-1.091 7.2377,-0.35209 9.1207,-0.40622 8.8768,-0.25516 -0.2942,0.18224 -8.8037,1.38995 -13.0934,1.85828 -6.6497,0.726 -13.4115,1.05382 -16.9033,0.81949 z"
     id="path1782" />
  <path
     style="fill:#e3e2db;fill-opacity:1;stroke-width:0.147948"
     d="m 3522.3811,262.49684 c -1.5895,-2.10443 -7.1229,-9.92634 -10.1785,-14.38794 l -0.5573,-0.81372 0.3525,-5.91792 c 0.1938,-3.25486 0.3549,-5.95121 0.3579,-5.9919 0,-0.0407 0.1718,-0.0836 0.3752,-0.0953 0.4424,-0.0255 0.4336,-0.21284 0.1317,2.81349 -0.3163,3.17104 -0.2214,6.93942 0.2149,8.52901 0.6223,2.26726 1.589,3.89769 3.9212,6.61324 2.8221,3.28608 5.2762,6.84179 6.7272,9.74697 1.4801,2.96351 1.1862,2.85512 -1.3448,-0.49592 z"
     id="path1784" />
  <path
     style="fill:#e3e2db;fill-opacity:1;stroke-width:0.147948"
     d="m 3580.8372,268.06272 c -0.4346,-0.33603 -2.1552,-1.98707 -3.8236,-3.66898 -2.5066,-2.52686 -3.1982,-3.14027 -3.9812,-3.53159 -2.2996,-1.14909 -4.5572,-0.42084 -12.0736,3.89464 -1.4729,0.84562 -2.7904,1.58066 -2.9279,1.63341 -0.4872,0.18696 -0.2407,-0.22377 0.398,-0.66325 0.3564,-0.2452 1.2719,-1.02193 2.0343,-1.72606 3.717,-3.43263 7.9568,-5.84469 10.2418,-5.8267 2.3402,0.0184 5.3611,2.39488 7.5739,5.95814 0.8477,1.36501 1.5175,2.23321 2.397,3.10683 0.6713,0.66684 1.2206,1.2624 1.2206,1.32347 0,0.2307 -0.294,0.0919 -1.0593,-0.49991 z"
     id="path1786" />
  <path
     style="fill:#e3e2db;fill-opacity:1;stroke-width:0.147948"
     d="m 3520.2388,320.56646 c 0.034,-0.10172 2.6305,-1.61633 5.7706,-3.36582 7.4372,-4.14353 10.8524,-6.37359 18.0864,-11.8101 6.117,-4.59711 10.3069,-7.96985 16.9286,-13.62694 8.1178,-6.93521 16.9208,-14.17355 20.4282,-16.7972 2.5268,-1.89004 3.4867,-2.70755 3.9293,-3.34625 0.3602,-0.51972 0.3921,-0.64393 0.2313,-0.90135 -0.1025,-0.16421 -0.1652,-0.31798 -0.1392,-0.34171 0.078,-0.0709 3.7237,0.33745 4.0111,0.44917 0.1458,0.0567 0.2412,0.17811 0.2119,0.2698 -0.06,0.18799 -1.7416,1.06241 -3.7319,1.94062 -3.9737,1.75338 -13.3446,9.36743 -24.0416,19.53436 -10.6441,10.11664 -24.5182,20.29032 -33.8061,24.78949 -2.4821,1.20234 -7.5027,3.39086 -7.7788,3.39086 -0.089,0 -0.1335,-0.0832 -0.1,-0.18493 z"
     id="path1788" />
  <path
     style="fill:#e3e2db;fill-opacity:1;stroke-width:0.0564355"
     d="m 3481.0822,322.10313 c -3.0674,-0.29484 -6.7651,-0.60948 -9.1383,-0.77757 -1.2561,-0.089 -1.7802,-0.1458 -1.7965,-0.19483 -0.018,-0.0545 2.1718,-0.0692 10.2999,-0.0692 5.6777,0 15.5525,-0.0148 21.944,-0.0328 8.2345,-0.0233 11.5963,-0.0153 11.5363,0.0274 -0.058,0.0413 -1.4544,0.0606 -4.4584,0.0614 -5.3375,0.002 -16.9597,0.0915 -21.8687,0.16913 -5.1124,0.0809 -7.4467,0.17655 -7.5809,0.31068 -0.11,0.11008 0.5871,0.24799 2.4042,0.47562 0.7685,0.0963 1.2274,0.17746 1.2415,0.21966 0.012,0.0368 0,0.0636 -0.025,0.0594 -0.026,-0.004 -1.1772,-0.11613 -2.5584,-0.2489 z"
     id="path1790" />
  <path
     style="fill:#e3e2db;fill-opacity:1;stroke-width:0.0614685"
     d="m 3585.0902,270.51688 c -0.7472,-0.10652 -1.5145,-0.4639 -2.72,-1.26682 -0.3803,-0.25334 -0.6915,-0.48548 -0.6915,-0.51588 0,-0.0304 0.058,-0.0553 0.1296,-0.0553 0.1076,0 0.123,-0.0262 0.091,-0.15367 -0.021,-0.0845 -0.022,-0.15367 0,-0.15367 0.02,0 0.3683,0.22172 0.7737,0.49271 0.8059,0.5387 1.7384,1.01642 2.4371,1.24862 0.4685,0.1557 0.5983,0.22566 0.4184,0.22566 -0.079,0 -0.096,0.0323 -0.068,0.12294 0.022,0.0676 0.03,0.11956 0.02,0.11544 -0.011,-0.004 -0.1854,-0.0312 -0.3883,-0.0601 z"
     id="path1792" />
  <path
     style="fill:#e3e2db;fill-opacity:1;stroke-width:0.0614685"
     d="m 3551.3861,268.98276 c 0.012,-0.0357 0.4223,-0.19724 0.9118,-0.3589 1.7709,-0.58479 3.7218,-1.45111 4.9778,-2.21049 0.503,-0.30409 0.7204,-0.3973 0.5655,-0.24237 -0.1053,0.10536 -0.091,0.29505 0.022,0.29505 0.1791,0 0.026,0.11442 -0.7385,0.55166 -1.4724,0.84218 -2.6258,1.293 -4.5625,1.78335 -1.022,0.25875 -1.2116,0.28804 -1.1762,0.1817 z"
     id="path1794" />
  <path
     style="fill:#e3e2db;fill-opacity:1;stroke-width:0.0679973"
     d="m 3434.996,167.39232 c -0.2661,-0.38584 -0.4598,-0.55202 -0.5866,-0.50337 -0.057,0.0221 -0.1045,0.10482 -0.1045,0.18391 0,0.0791 -0.031,0.1336 -0.068,0.12113 -0.058,-0.0195 -2.1076,-4.36625 -2.2148,-4.69748 -0.081,-0.24913 0.1133,-0.10328 0.3616,0.27199 0.1991,0.3008 0.2975,0.39098 0.4269,0.39098 0.1525,0 0.1663,-0.0237 0.1482,-0.25499 -0.021,-0.26309 0.091,-0.35389 0.1679,-0.13599 0.091,0.25954 1.3297,3.03018 1.7507,3.91577 0.2459,0.51748 0.4472,0.95351 0.4472,0.96896 0,0.10977 -0.1615,-0.0184 -0.3288,-0.26091 z"
     id="path1796" />
  <path
     style="fill:#e3e2db;fill-opacity:1;stroke-width:0.0679973"
     d="m 3435.9615,147.06113 c -0.4348,-0.57161 -1.5876,-1.92776 -2.2258,-2.61839 -0.2853,-0.30881 -0.5188,-0.59185 -0.5188,-0.62898 0,-0.0891 0.1161,-0.0866 0.1719,0.004 0.024,0.0391 0.197,0.1921 0.3841,0.33998 0.3816,0.30162 0.6,0.34792 0.6,0.12722 0,-0.26964 0.1707,-0.0861 0.7202,0.77446 0.484,0.75799 1.3197,2.26812 1.3197,2.38484 0,0.13284 -0.1666,-0.008 -0.4513,-0.38274 z"
     id="path1798" />
  <path
     style="fill:#e3e2db;fill-opacity:1;stroke-width:0.0679973"
     d="m 3436.7817,150.72735 c -0.024,-0.0624 -0.1167,-0.11336 -0.2062,-0.11336 -0.09,0 -0.1622,-0.023 -0.1615,-0.051 0,-0.06 0.5117,-0.49298 0.581,-0.49298 0.026,0 0.032,0.14035 0.012,0.3119 -0.04,0.35135 -0.1553,0.52854 -0.2256,0.34544 z"
     id="path1800" />
</svg>
