<?xml version="1.0" encoding="UTF-8" standalone="no"?>
<svg
   id="bird-cells"
   viewBox="0 0 3671 510"
   version="1.1"
   sodipodi:docname="bird-cells-white.svg"
   inkscape:version="1.2 (dc2aeda, 2022-05-15)"
   xmlns:inkscape="http://www.inkscape.org/namespaces/inkscape"
   xmlns:sodipodi="http://sodipodi.sourceforge.net/DTD/sodipodi-0.dtd"
   xmlns="http://www.w3.org/2000/svg"
   xmlns:svg="http://www.w3.org/2000/svg">
  <defs
     id="defs49" />
  <sodipodi:namedview
     id="namedview47"
     pagecolor="#ffffff"
     bordercolor="#000000"
     borderopacity="0.25"
     inkscape:showpageshadow="2"
     inkscape:pageopacity="0.0"
     inkscape:pagecheckerboard="0"
     inkscape:deskcolor="#d1d1d1"
     showgrid="false"
     inkscape:zoom="0.46575434"
     inkscape:cx="1942.0109"
     inkscape:cy="395.05804"
     inkscape:window-width="1920"
     inkscape:window-height="1056"
     inkscape:window-x="0"
     inkscape:window-y="24"
     inkscape:window-maximized="0"
     inkscape:current-layer="bird-cells" />
  <g
     fill="none"
     fill-rule="evenodd"
     id="g44"
     style="display:inline">
    <g
       id="g42">
      <path
         class="cell-container"
         stroke="none"
         d="m 0.5,0.5 h 359 v 509 H 0.5 Z"
         id="path2" />
      <path
         class="cell-container"
         stroke="none"
         d="m 359.5,0.5 h 359 v 509 h -359 z"
         id="path4" />
      <path
         class="cell-container"
         stroke="none"
         d="m 718.5,0.5 h 359 v 509 h -359 z"
         id="path6" />
      <path
         class="cell-container"
         stroke="none"
         d="m 1077.5,0.5 h 370 v 509 h -370 z"
         id="path8" />
      <path
         class="cell-container"
         stroke="none"
         d="m 1448.5,0.5 h 370 v 509 h -370 z"
         id="path10" />
      <path
         class="cell-container"
         stroke="none"
         d="m 1818.5,0.5 h 370 v 509 h -370 z"
         id="path12" />
      <path
         class="cell-container"
         stroke="none"
         d="m 2189.5,0.5 h 370 v 509 h -370 z"
         id="path14" />
      <path
         class="cell-container"
         stroke="none"
         d="m 2559.5,0.5 h 370 v 509 h -370 z"
         id="path16" />
      <path
         class="cell-container"
         stroke="none"
         d="m 2930.5,0.5 h 370 v 509 h -370 z"
         id="path18" />
      <path
         class="cell-container"
         stroke="none"
         d="m 3300.5,0.5 h 370 v 509 h -370 z"
         id="path20" />
      <path
         fill="#000000"
         d="m 51,288.38 c 13.33,-5.34 35.33,-9.34 66,-12 0,0 18.44,-9.95 55,-15 1.04,-0.15 7.5,-8 36,-13 16,0 21,-3.88 30,5 3.53,-13.53 19.13,-16.58 29,-15 6.9,1.1 11.3,5.93 12,8 4,12 21,5 30,12 -23,6 -23,7 -32,11 -16,14 -31,31 -47,31 -16,4 -32.83,5.33 -50.5,4 -1,4 -3.5,6.66 -7.5,8 -6,2 -1,-9 -4,-12 -3,-3 -3,10 -17,18 -1,-14 -5,-10 -5,-18 0,-8 4,13 -17,18 -14,3.33 -31.67,4 -53,2 26,-8.67 41.33,-16.34 46,-23 -5,0 -18,-1 -21,-9 -14,-4.5 -30.67,-4.5 -50,0 z"
         id="path22" />
      <path
         fill="#000000"
         d="m 639,273 c 0,2.07 -10,3 -16,5 -9,1 -8,8 -14,7 -6,-1 -5,8 -19,14 2,11 21,9 36,19 29,30.62 18,19 37,63 14,28 18,30 27,57 -1,1 -11,-1 -14,-7 -1,5 -5,1 -4,7 -5,-1 -8,-8 -12,-11 -4,-1 1,7 -2,8 -4,0 -5,-8 -9,-8 -4,1 1,6 -2,7 -33,-30 -43,-21 -43,-36 -8,10 -10,-2 -19,3 -4,-5 -6,-10 -2,-17 -1,-5 -7,5 -11,3 -1.33,-6 1,-12.67 7,-20 -6.67,6.67 -14,10 -22,10 1,-10 -1,-6.5 5,-16 -6,7.5 -13,8 -19,6 -4.43,-2.1 4,-8 2,-11.5 -8,0 -22.76,-0.3 -24,-3.5 -3.26,-8.4 8,-19 4,-25 -3.12,-4.67 -12,9 -15,-3 0,-12 -4.67,-17 -14,-15 -8.67,-1.33 -19.33,-1.33 -32,0 -19,2 -27,-5 -58,-5 10,-5 9,-13 27,-13 -21,-3 -10,-10 -45,-13 30,-8 32,0 54,7 68,-7 22,-15 94,-22 14,-2 36,-4 58,2 5,-2 6,-5 15,-6 8,0 12.67,3.67 14,11 10.67,0.72 16,1.72 16,3 z"
         id="path24" />
      <path
         fill="#000000"
         d="m 729,299.03 c 32,-14 56,-26 90,-40 20,-6 37,-5 56,-8 28,0 17,-8 55,-3 8,-1 10.95,-7.5 19,-7 8.67,0 13.33,2.66 14,8 l 26,5 -24,5 c -2.67,5.33 -8,8.33 -16,9 -12,12 -11,18 -29,21 22,13 23,17 64,38 13,11 13,15 17,31 4,15.98 14.06,25.74 21,35 26,46 23,59 45,80 -11,-1 -23,-8 -28,-13 -4,-1 -3,5 -3,8 -6,-2 -8,-15 -16,-13 -3.46,0 4,5 0,13 -13,-5 -14,-7 -16,-13 -3,-4 -7,-11 -3,-12 -2,8 0,12 -6,12 -5,-10 -7,-3 -11,-12 -8,-14 -17,-12 -17,-29 -4,0 -7,4 -10,9 -3,-4 0,-9 -1,-12 -2,0.66 -4.33,1.66 -7,3 -2,-12.67 -2,-21.67 0,-27 -8,2 -4,6 -15,10 -5,-6 -4,-12 -2,-21 -5,6 -5,-3 -12,2 -9,-9 -10,-18 -25,-18 -5,-12 -3,-20 -11,-22 -3.23,0.86 -4,10 -6,7 -2,-3 -2,-10 -5,-12 -2,-3 -6,6 -9,3 0,-5 -2,-11 -6,-14 -3,-4 -5,0 -10,3 -2,-5 -2,-9 -1,-14 -4,-1 -14,5 -12,-2 0,-7 -4,-4 -8,-4 -5,0 1,-5 -1,-6 -5,-2 -13,2 -21,6 -5,-2 4,-10 0,-10 -31,-1 -38,7 -76,4 z"
         id="path26" />
      <path
         fill="#000000"
         d="m 1367,254.1 -18,-3 c -2,-6 -5.33,-9.35 -10,-10 -14,-1 -17,7 -22,10 -21,-3 -19,-1 -35,0 -30,-5 -36,4 -50,7 -36,5 -33,9 -48,16 -34,18 -41,19 -75,29 6.67,0.65 14,0 22,-2 -14.67,4 -21,6.32 -19,7 31,-5 29.02,4.23 52,0 11,-3 10,-9 13,-12 2,7 1,7 2,13 16,-3 21,-2 30,-2 3,4 -3.66,8.6 0,10 4,-1.35 9.33,-2.68 16,-4 -4,4.65 -5.67,8.32 -5,11 15,2 12,4 24,1 -11,4 -11,4 -16,10 16,3 14,1 24,2 -4,4 -3,8 -1,11 6,-3 9.53,-4.5 12,-3 -3,3.44 -5,7 -2,9 10,-2 12.4,-5.28 15,-2 -3,8 0,11 1,22 5,0 10,-2 15,-4 1,8 -3,8 -3,16 6,3 13,-3 17,-1 -7,4 -7,6 -8,9 7,3 6,2 14,0 -5.33,4 -7,7.65 -5,11 5.33,-3.35 8.33,-3.35 9,0 -2,6 0,7 1,15 10,-5 10,2 21,5 5.97,3.27 6.4,10.54 11,14 9,6.74 20,9 19,9 -1,0 -9,-11 -5,-10 3.33,4 7.67,8.32 13,13 0,-8 -0.67,-13.68 -2,-17 9,14 12,12 28,23 3,-13 -6,-18 -15,-28 19,22 19,20 30,24 -24,-30 -20,-26 -29,-53 -14,-26 -24,-61 -39,-75 -18,-12 -19,-17 -38,-26 -3.33,-4.68 -7.33,-8 -12,-10 12,-2 21.33,-5.68 28,-11 2,-5 7,-5 11,-9 6,-1.35 9.67,-4.35 11,-9 z"
         id="path28" />
      <path
         fill="#000000"
         d="m 1751,256 c -11,-1 -12,-4 -24,-6 -3,-6 -4,-5 -10,-7 -14,0 -21,7 -29,12 -24,-3 -31,-1 -44,2 -46,12 -43,12 -70,23 -46,27 -39,30 -58,40 23,6 31,-3 47,-7 -6.67,2.67 -8.67,6 -6,10 6.67,-2.67 11,-3.67 13,-3 -5,2 -9.7,10.57 -5,10 27,-2 30.7,-14.27 46,-15 -4,5 -6,8 -4,13 12,-3 11,-2 18,-4 -2,6 -3,6 0,15 8.5,2 13,-5 13,-5 4,4 0,11 0,20 11,0 11,2 15,0 -2,8 2,8 5,14 4,-8 7,-5 14,-12 -2,13 5,12 6,21 10,-9 11,-11 13,-21 -4,15 2,17 5,28 4,-7 7,-7 8,-16 1,5 3.98,7.87 5,6 3,-10 3.32,-8.12 4,-6 -3,13 2,16 5,27 7,-12 5,-18 5,-19 2,15 15,8 28,33 4,-14 -16,-38 -23,-73 -4,-23 -3,-28 -14,-43 -3,-7 -10,-8 -13,-7 8,-4 7,-8 12,-15 15,-2 11,-5 15,-10 -1,0 5,-4 23,-5 z"
         id="path30" />
      <path
         fill="#000000"
         d="m 2119.66,270.36 c 0,-3 -11,-6 -20,-6 -1.34,-2.67 -3.67,-5 -7,-7 -5.34,-2.67 -12.34,-2.67 -21,0 -8,1 -16,-13 -8,-26 7,-3 10,-9 11,-14 -8,-4 -11,-5 -22,-4 -65,4 -85,28 -110,50 -8,7 10,5 18,5 -42,0 -78,41 -72,37 6,-4 16,6 35,-11 2,-1 -7,5 -15,15 21,-3 21,-6 39,-4 -2,7 3.6,7.22 9,8 4.33,0.62 9.2,-0.44 15,0 12.53,1.4 13,-1 18,-1 6,0 5.35,0.6 9,0 9,-2 7,-3 10,-7 -3,8 1,11 6,21 7,-6 6,-14 6,-19 0,13 -1,9 2,17 6,-5 6,-4 8,-12 -3,10 -1,17 3,28 5,0 6.84,-4.66 10,-3 0,5 0,3 6,13 5,-5 2,3 7,-8 -1,10 4,4 10,18 5,-10 3,-14 -1,-23 6,13 8,12 13,19 2,-19 -1,-23 -7,-36 3,-19 -6,-20 -5,-33.5 8,-10.5 15,2 24,-6.5 7,-1 4,-4 9,-7 8,-5 19,1 20,-3 z"
         id="path32" />
      <path
         fill="#000000"
         d="m 2485,278.84 c -6,-3 -7,-1 -16,-3 1,-5 -4.66,-10 -11,-10 -9.16,0 -9.5,5.2 -21,8 -9,2.2 -12.7,3.03 -18,-2 -24,-15 -11,-19 -32,-44 -9,-7 -12,-11 -4,-21 13,-14 17,-22 17,-32 -4,-7 -85,-3 -113,34 5.06,1.15 16.8,-6.7 20.65,-6 4.35,1 -18.65,13 -9.65,11 9,-2 15,-7 21,-7 2.67,-0.05 -2,2 -3,7 3.78,0.9 9.8,-1.85 16,-3 3.52,-0.65 7.9,0.34 10,0 -4,3 -10,1 -20,17 6,5.5 14,-1.5 20,-1.5 -3,5.5 -11,2.5 -15,20.5 2,4 11,-6 9,-2 0,4 -7,2 -9,18 6,0 8,-7 9,-2 -2,3 -5,3 -5,9 3,3 9,-4 11,-4 -1,2 -6,2 -6,10 -38,9 -49,18 -68,30 7,4.9 23,-5 25,-1 -1.46,3.22 -11,5.9 -28,11 17,2 31,2 42.65,-5.1 10.35,1.1 18.57,-1.9 21.35,-1.9 4,6 0,13 7,15 3,-5 8,-12 9,-15 3,-2 -5,11 3,13 9,0 19,7 36,7 18,0 22,-6 42,-13 12,-1 20,-5 25,-18 3,-8 9,-4 18,-13 2,-2 12,-3 16,-6 z"
         id="path34" />
      <path
         fill="#000000"
         d="m 2859,275.74 c -0.52,-2.35 -8,-3 -20,-5 -6.62,-3.1 -7.68,-9 -14,-9 -13,0 -7.83,6.16 -21,9 -7.7,1.67 -15,2 -20,0 -5,-2 -6.32,-3.7 -10,-6 -19.2,-11.9 -10.17,0.25 -19.17,-20 -10.54,-12 -10.6,-24.55 -6.83,-42 0.97,-4.5 2.27,-8.15 4,-11 6,-9.83 12.67,-30.6 11,-45 -1.4,-12.16 -11,-14 -27,-17 -21,-4 -33,-5 -58,-2 -9,8 -21,5 -33,21 9,-1 7,-3 14,3 8,-4 15.48,-1.3 16,-1 7.16,4.13 -3.54,3.73 1,6 6,0 2,4 0,9 5,-0.5 8,-1 6,4 4.4,3.22 8.36,-3.24 9,1 0.86,5.76 -11.7,9.4 -9,17 18,3 20,5 22,7 -4,1 3,2 -26,11 3,10 14,6 15,16 0,7 -9,4 -12,17 12,2 9,6 23,6 -5,0 -18,4 -26,12 9,2 6,6 14,7 7,3 6,3.36 4,7 -6.5,11.86 -5,15 -20,23 -15,8 -26.3,15.78 -35,22 -4.63,3.32 -7.48,8.23 -11,12 12,-2 12,-3 15,-2 2,4 1,-3 0,11 6,-5 16,-12 22,-16 5,0 13,-3 17,0 5,0 0,-7 0,-8.96 0,-1.96 3.48,5.8 5,3.96 5,-6 4,-9 3,-14 4,3 1,10.9 6,12 19,6 21,5 42,-1 1.2,-0.07 2.95,-0.92 4.3,-0.96 1.2,1.42 0.7,3 3.7,3.96 1.57,-2.35 4.93,-3.06 6.83,-3.1 0.52,0 -0.24,-0.93 0,-0.86 10,3 17.17,3.96 32.17,0.96 13,-8 24,-5 35,-17 14,-6 14,-10 17,-16 4,-3 9,0 20,-4 z"
         id="path36" />
      <path
         fill="#000000"
         d="m 3243,286 c -8,-3 -7,-2 -17,-4 -7.6,-3.28 -5,-11 -21,-13 -16.1,1.03 -15,14 -31,13 -10.43,-0.65 -13,-7 -21,-11 -8,-4 -13,-5 -19,-12 -13,-42 -1.27,-9.56 -3,-59 -0.27,-7.56 -6,-44 -1,-54 8,-3 4.84,-13.8 0,-22 -32,-34 -40.22,-58.03 -60,-79 -4,-1 5,12 -2,7 -8.8,-5.08 -7,-14 -23,-22 1,5 4,12 2,15 -5,-3 -14,-23 -20,-23 1,4 8,11 8,23 0,4 -14,-6 -9,-1 5,5 7,13 9,19 7.25,13.18 22,23 22,22 -3,-1 -17,-12 -26,-11 2,5 8,7 10,17 -2,2 0,3 -8,0 4,19 14,28 35,41 2.6,4.24 -11.1,-4.18 -14,-1 -2.6,2.82 1.67,8.6 5,15 9.17,17.6 18.32,18.92 20,30 -1,4 -9.77,-1.26 -14,2 -2.27,1.74 4.75,5.74 4,10 -0.75,4.24 -9.22,1.68 -8,6 2.48,2.98 -2,12 -1,17 1,5 4,6 4,11 0,5 7,-2 8,6 5,4 -1,4 -8,12 5,5 10,4 8,14 -2,10 -7,6 -12,12 -5,7 -3,11 -10,17 -9,8 -15,4 -31,16 -13,7 -14,2 -30,13 18,2 36,12 68,5 5,2 -5,5 -2,7 14,1 16,3 23,0 -4,3 -10.62,8.7 -7,9 8.53,0.74 23.38,-0.95 30,0 8.4,1.2 12.75,5 27,5 7.7,0 16.25,-8.18 21,-7 7.3,1.8 6,2.93 17,0 19.33,-5.15 24,-9 39,-19 8,-12 13,-9 20,-21 11,-2 18,-2 18,-5 z"
         id="path38" />
      <path
         fill="#000000"
         d="m 3595.2,274 c 0,-2.56 -5,-4 -13,-7 -4.25,-3.13 0,-8 -10,-10 -17,0 -11.03,8.98 -21,12 -10,-1 -9,-2 -21,1 -4.15,1.04 -3.9,-10.8 -6,-13 -2.97,-3.06 -5,-3 -10,-8 -3,-11 6,-24 3,-45 -1.34,-9.32 -4.68,-21.56 -9,-33 -2.45,-13.1 -2,-10 -13,-23 -21,-28 -37,-37 -47,-67 -4.96,-4.56 -0.68,12.44 -5,11 -7.68,-2.56 -15.4,-19 -19,-19 -2.9,0 7.5,17.9 4,23 -3,4.4 -17,-7.67 -17,-5 0,3.33 8,16 15,19 -4,4 -9.5,-4.6 -11,-1 7,9 1,11 6,24 5.77,12.05 11,8 16,18 -3.62,4.17 -24.5,-6.8 -26,-3 -1.02,2.53 9.7,2.7 17,10 6,6 1.8,13.48 6,16 5,3 2,6 8,13 6,7 10,-2 8,8 -0.94,4.66 -4,4.34 -4,9 0,5.34 8,-1 6,5 0,2.57 -4,4 -6,8 0,0.72 7.58,-1.47 8,1 1.08,6.53 -7.23,11.8 -4,17 3.27,5.3 12,4 17,3 -5,4 -13,3.95 -13,9 0,9.45 10,13 4,18 2,5 -5,9 -4,13 1,4 5.17,8.47 10,10 3.24,1.03 9,2 6,3 -6,2 -7,-1 -12,3 -4.25,0 -2,-6 -10,-4 -24,4 -60,20 -73,34 -2,3 12,-3 21,-4 -8,3 -20,7 -5,6 11,1 28,0 57,-5 21.46,-0.66 17,7 39,2 11,3 28,6 43,-5 14,-2 15.58,-9.85 33,-23 6,-2 11,-11 14,-17 7.8,-3.53 12,-1 18,-4 z"
         id="path40" />
    </g>
  </g>
  <path
     style="display:inline;fill:#000000"
     d="m 221.65674,267.20265 c -0.73476,-9.26649 33.40033,-4.98871 33.40033,-6.07279 0,-3.03639 -6.13175,-0.59549 -9.10918,0 -7.90483,1.58097 -16.38632,4.49182 -24.29115,6.07279 z"
     id="path218"
     inkscape:label="path218" />
  <path
     style="fill:#e3e2db;stroke-width:3.03639"
     d="m 104.83581,310.47126 c 18.17354,-9.28074 22.8413,-15.94107 11.17197,-15.94107 -4.10972,0 -9.17321,-2.04957 -11.2522,-4.55459 -2.07898,-2.50503 -8.053391,-4.57551 -13.27646,-4.60109 -7.248078,-0.0355 -8.418134,-0.74338 -4.941899,-2.98989 2.505025,-1.61888 9.384268,-2.96433 15.287209,-2.9899 5.90294,-0.0256 18.20033,-2.66186 27.32754,-5.8584 9.12721,-3.19655 22.06044,-6.74988 28.7405,-7.89629 6.68007,-1.14641 17.89186,-4.7722 24.9151,-8.05731 15.70676,-7.34681 44.67893,-10.8037 50.44427,-6.01889 3.17885,2.63821 5.73563,1.69524 11.21347,-4.13566 9.54847,-10.16387 23.94119,-10.14724 32.79706,0.0379 3.75854,4.3227 9.87721,7.59098 14.21135,7.59098 10.50972,0 9.57331,5.15929 -1.37277,7.56346 -4.94111,1.08524 -17.84799,9.23897 -28.68195,18.11939 -16.78555,13.75883 -22.56512,16.64548 -39.08809,19.52283 -10.66448,1.85714 -25.00451,3.37662 -31.86673,3.37662 -6.86221,0 -13.4656,1.59999 -14.67419,3.55552 -1.42999,2.31378 -3.15614,0.98823 -4.94252,-3.79549 l -2.74509,-7.35101 -6.1173,8.35008 c -7.66763,10.46625 -10.48347,10.50871 -13.07152,0.19709 l -2.04628,-8.153 -3.65642,7.33406 c -5.23785,10.50609 -16.1142,14.94873 -36.72245,14.99997 l -18.003737,0.0448 z"
     id="path683" />
  <path
     style="fill:#e3e2db;stroke-width:3.03639"
     d="m 680.86195,433.81223 c -2.92184,-1.63515 -6.75891,-2.07903 -8.52682,-0.9864 -1.7679,1.09262 -5.25886,-0.5414 -7.75768,-3.63116 -3.37355,-4.17134 -4.96112,-4.60789 -6.16604,-1.69552 -1.18016,2.85251 -2.6972,3.03049 -5.56243,0.65256 -2.16684,-1.79831 -5.28284,-2.88013 -6.92446,-2.40403 -3.83759,1.11297 -26.71144,-12.27085 -36.24292,-21.20625 -4.04225,-3.78945 -8.51304,-6.17084 -9.93509,-5.29197 -1.42205,0.87888 -6.20789,0.22075 -10.63519,-1.46252 -6.41956,-2.44071 -7.63092,-4.37979 -5.98188,-9.57544 1.77165,-5.58202 1.11427,-6.26564 -4.59057,-4.77378 -4.96226,1.29765 -6.21052,0.63743 -4.9003,-2.59185 6.01393,-14.82254 6.04259,-14.32389 -0.61833,-10.75907 -9.6792,5.18015 -13.72164,4.18411 -11.86309,-2.92301 1.21201,-4.63473 0.49907,-5.84534 -2.68225,-4.55459 -2.38318,0.96693 -6.5212,2.6406 -9.1956,3.71928 -3.61309,1.45728 -4.56527,0.48201 -3.70563,-3.79549 0.90723,-4.51428 -1.4838,-6.47179 -11.07851,-9.06986 -7.60763,-2.06 -11.87655,-4.85936 -11.28657,-7.40121 5.05904,-21.79613 4.99269,-22.17424 -3.51634,-20.03861 -6.9868,1.75358 -8.05991,1.08539 -8.05991,-5.01865 0,-12.1033 -5.44877,-14.32889 -35.08039,-14.32889 -41.64145,0 -65.87637,-3.02171 -61.97144,-7.72686 1.74499,-2.1026 6.87421,-4.75412 11.39826,-5.89228 l 8.22553,-2.06939 -10.62738,-4.62728 c -5.84505,-2.545 -14.04332,-5.72952 -18.21836,-7.07672 l -7.59098,-2.44944 8.28863,-0.26099 c 4.55875,-0.14354 13.86683,1.97097 20.68462,4.69891 15.88393,6.35548 38.08454,4.26189 62.30829,-5.87588 21.31452,-8.92024 68.53923,-14.76575 90.90208,-11.25192 8.35008,1.31203 17.4833,1.17061 20.29604,-0.31427 8.53321,-4.5048 15.0946,-3.07713 22.4794,4.89119 4.502,4.85775 5.57232,7.59099 2.97256,7.59099 -10.17603,0 -38.33381,20.29735 -36.1289,26.04327 0.84605,2.20476 8.25346,6.23908 16.46092,8.96516 18.92132,6.28465 36.85253,24.70154 45.73543,46.9742 3.66325,9.18509 13.37922,30.12742 21.59105,46.5385 8.21183,16.41109 14.45497,30.31397 13.87365,30.8953 -0.58133,0.58133 -3.44756,-0.2809 -6.3694,-1.91603 z"
     id="path685" />
  <path
     style="fill:#e3e2db;stroke-width:3.03639"
     d="m 1046.5724,462.77922 c -3.7891,-2.65397 -8.7755,-4.10157 -11.081,-3.21688 -2.3054,0.8847 -5.8253,-0.35981 -7.8219,-2.76557 -5.1136,-6.16153 -8.9594,-5.43237 -8.9594,1.69868 0,3.34003 -1.2733,6.07279 -2.8296,6.07279 -3.9708,0 -15.6284,-16.96662 -13.2748,-19.3202 1.064,-1.06401 0.3404,-1.93456 -1.6079,-1.93456 -1.94836,0 -3.60072,2.39116 -3.67193,5.31369 -0.15437,6.33593 -22.89806,-17.81918 -27.45086,-29.1544 -1.82735,-4.5496 -4.50534,-6.51226 -7.3804,-5.40899 -2.48182,0.95236 -4.51239,0.26189 -4.51239,-1.53439 0,-1.79628 -2.04957,-2.47947 -4.55459,-1.5182 -3.62978,1.39288 -4.55459,-1.00733 -4.55459,-11.82071 0,-14.19467 -2.67537,-16.76616 -9.22847,-8.87016 -3.11283,3.75073 -4.39863,3.90383 -6.37526,0.7591 -1.3618,-2.16657 -1.73193,-6.33038 -0.82251,-9.25291 1.19329,-3.83475 -0.0287,-5.31369 -4.39034,-5.31369 -3.32411,0 -10.14296,-4.09913 -15.15301,-9.10918 -5.01005,-5.01005 -10.98129,-9.10918 -13.26943,-9.10918 -2.28813,0 -5.46758,-4.44073 -7.06545,-9.86828 -2.27633,-7.73212 -4.38409,-9.71171 -9.7371,-9.14498 -4.46702,0.47293 -6.83188,-0.91171 -6.83188,-4.00011 0,-3.13285 -1.80554,-4.15035 -5.36183,-3.02163 -3.63405,1.1534 -6.33522,-0.49294 -8.38256,-5.10907 -1.66139,-3.74597 -5.39727,-6.62108 -8.30194,-6.38913 -3.30224,0.26369 -5.28122,-1.72745 -5.28122,-5.31369 0,-3.71115 -2.14333,-5.73541 -6.07278,-5.73541 -3.34004,0 -6.07279,-1.36638 -6.07279,-3.03639 0,-1.67002 -2.04957,-3.0364 -4.55459,-3.0364 -2.50503,0 -4.55459,-1.51844 -4.55459,-3.37432 0,-2.21185 -3.66117,-2.68747 -10.62738,-1.3806 -7.24273,1.35874 -10.62738,0.85843 -10.62738,-1.57092 0,-2.6475 -8.78872,-2.99948 -34.15943,-1.36807 -18.78768,1.2081 -33.47624,1.56201 -32.64123,0.78646 4.65726,-4.3256 79.56393,-35.7315 91.09181,-38.1918 7.51508,-1.60387 30.74349,-4.47455 51.61869,-6.37929 41.94828,-3.82752 51.51387,-4.97622 66.00659,-7.92654 7.50846,-1.52851 10.27731,-0.8447 11.71134,2.8923 1.14462,2.98284 5.60494,4.9843 11.42145,5.12509 l 9.54342,0.231 -9.10918,3.57154 c -14.99493,5.87922 -26.97753,13.15871 -33.4075,20.29521 -3.33609,3.70266 -9.40308,8.0079 -13.48221,9.56719 -7.33278,2.80305 -7.26415,2.93819 6.07279,11.95958 7.41916,5.01847 23.55748,14.72924 35.86295,21.57948 18.30244,10.18866 23.401,14.71728 28.01996,24.88778 3.10551,6.83804 5.67642,14.60153 5.71302,17.25219 0.037,2.65067 5.4052,12.27445 11.93,21.3862 11.5143,16.07964 46.1724,84.62278 42.7886,84.62278 -0.9251,0 -4.7821,-2.17143 -8.5712,-4.82541 z"
     id="path687" />
  <path
     style="fill:#e3e2db;stroke-width:3.03639"
     d="m 1384.7012,442.99894 c -10.3853,-9.11841 -10.733,-9.20154 -10.733,-2.5658 0,6.54059 -0.2665,6.61681 -5.7579,1.64713 -4.466,-4.04161 -6.104,-4.31753 -7.3005,-1.2297 -1.0454,2.69803 -5.0641,0.37366 -12.4693,-7.21201 -6.0097,-6.15622 -15.705,-12.921 -21.5453,-15.03285 -7.9414,-2.87165 -10.6185,-5.59979 -10.6185,-10.82073 0,-3.83956 -1.3235,-6.98101 -2.9411,-6.98101 -1.6176,0 -2.1929,-1.94987 -1.2784,-4.33305 1.2141,-3.16395 -0.04,-3.88764 -4.6499,-2.68225 -3.6093,0.94385 -6.3126,0.19882 -6.3126,-1.73974 0,-1.8648 1.3664,-3.39053 3.0364,-3.39053 1.67,0 3.0364,-1.51451 3.0364,-3.36557 0,-2.07373 -2.9137,-2.63426 -7.591,-1.46035 -6.856,1.72075 -7.591,1.00727 -7.591,-7.36864 0,-8.22789 -0.6624,-8.91935 -5.8731,-6.13064 -8.7934,4.70605 -9.3088,4.18932 -9.3088,-9.33152 0,-11.75436 -0.4337,-12.36589 -7.5101,-10.58983 -6.1528,1.54424 -7.1578,0.96673 -5.5607,-3.19529 1.5342,-3.99788 0.6024,-4.72793 -4.3736,-3.42669 -4.4938,1.17516 -6.7557,-0.001 -7.8188,-4.06653 -1.0807,-4.13258 -4.3134,-5.74989 -11.6484,-5.82763 l -10.1525,-0.10759 7.586,-4.19837 7.5861,-4.19836 -10.6225,-1.00773 c -8.4581,-0.80241 -10.4221,-2.17125 -9.6391,-6.71826 0.8016,-4.65491 -0.4613,-5.43436 -6.8319,-4.21655 -5.3004,1.01323 -7.8152,0.16387 -7.8152,-2.63956 0,-2.93597 -4.3985,-4.13352 -15.182,-4.13352 -13.1577,0 -15.1819,-0.80971 -15.1819,-6.07279 0,-7.76019 -3.5582,-7.76019 -8.4046,0 -3.2973,5.27992 -6.8615,6.0268 -27.2988,5.72056 -12.9285,-0.19372 -21.0984,-0.98032 -18.1555,-1.748 2.943,-0.76767 4.6957,-2.45586 3.895,-3.75153 -0.8008,-1.29567 4.3064,-4.08188 11.3493,-6.19159 7.0429,-2.10971 23.7362,-9.36821 37.0964,-16.13002 32.9771,-16.69032 62.4854,-23.90564 106.8941,-26.13751 23.3033,-1.17117 38.4609,-3.27111 40.8395,-5.6579 5.2243,-5.24239 17.5678,-4.76647 19.6882,0.7591 0.9612,2.50502 3.6511,4.55459 5.9775,4.55459 2.3263,0 4.2297,1.36638 4.2297,3.03639 0,1.67002 -2.0496,3.0364 -4.5546,3.0364 -2.505,0 -4.5546,1.40019 -4.5546,3.11154 0,1.71135 -3.0743,4.47899 -6.8319,6.1503 -3.7575,1.67132 -11.4746,6.41982 -17.1492,10.55223 -5.6745,4.13241 -12.7673,7.51347 -15.7618,7.51347 -11.7081,0 -7.6722,5.84506 15.483,22.42315 13.2634,9.496 27.4504,21.6577 31.5266,27.02599 6.2573,8.24058 27.0053,53.27552 41.1713,89.3652 2.1087,5.37218 5.7366,11.34659 8.062,13.27646 2.3253,1.92987 4.2279,4.97597 4.2279,6.7691 0,1.79314 -4.9537,-1.44852 -11.0082,-7.20367 -7.2252,-6.86792 -9.8909,-8.29114 -7.7568,-4.14141 1.7883,3.47738 5.3756,8.08541 7.9718,10.24007 2.5962,2.15466 4.7204,5.11663 4.7204,6.58216 0,5.0415 -5.8839,2.64494 -16.5945,-6.75912 z"
     id="path689" />
  <path
     style="fill:#e3e2db;stroke-width:3.03639"
     d="m 1734.0255,387.17043 c -10.7709,-9.86576 -11.5791,-10.12806 -13.1146,-4.25618 -2.2056,8.43419 -6.7564,1.38206 -6.8202,-10.56871 -0.037,-6.94976 -0.8744,-8.03475 -4.1213,-5.34004 -2.2412,1.86002 -4.8492,2.60754 -5.7956,1.66117 -0.9463,-0.94637 -2.6957,1.35132 -3.8873,5.10599 l -2.1667,6.82668 -3.8555,-7.20397 c -2.1205,-3.96217 -3.1642,-9.32237 -2.3193,-11.91153 0.8448,-2.58917 -1.9643,-0.60845 -6.2424,4.4016 l -7.7785,9.10918 -2.056,-9.86828 c -2.3505,-11.28161 -3.4149,-11.69194 -12.9691,-4.99988 -6.5514,4.58877 -7.0466,4.50157 -8.6208,-1.5182 -0.9517,-3.63931 -4.1301,-6.38659 -7.3887,-6.38659 -4.3379,0 -5.7187,-2.21349 -5.7187,-9.16703 0,-8.26196 -0.7495,-8.97893 -7.591,-7.26181 -6.6298,1.66397 -7.591,0.91195 -7.591,-5.93903 0,-7.05824 -0.8932,-7.66561 -8.9139,-6.06146 -7.9328,1.58657 -8.7294,1.07689 -7.2369,-4.6305 2.097,-8.0189 1.9663,-8.01042 -17.7071,1.14803 -19.0301,8.85899 -29.79,10.2432 -23.8335,3.06606 3.1635,-3.8118 2.6997,-4.55459 -2.8438,-4.55459 -3.6431,0 -5.7794,-1.36638 -4.7472,-3.03639 2.476,-4.00636 -0.306,-3.79943 -16.9863,1.26348 -21.3408,6.47746 -22.5689,1.71177 -3.2842,-12.74453 35.6353,-26.71324 96.4513,-49.08669 134.1352,-49.34677 9.1851,-0.0634 20.1161,-2.06798 24.2912,-4.45465 9.4775,-5.41785 17.7084,-5.63928 28.2167,-0.7591 8.1331,3.77715 10.9719,8.35009 5.1836,8.35009 -3.3283,0 -10.4792,5.76249 -24.4919,19.73655 -8.0583,8.03604 -8.4617,9.21616 -3.4241,10.01716 7.9877,1.27009 17.3228,19.8164 21.7039,43.11973 2.0408,10.85511 7.8463,29.71356 12.9011,41.90767 5.0548,12.19411 8.597,22.76475 7.8714,23.49032 -0.7256,0.72556 -6.4844,-3.41195 -12.7975,-9.19447 z"
     id="path691" />
  <path
     style="fill:#e3e2db;stroke-width:3.03639"
     d="m 2060.3429,347.84757 c -1.9966,-2.40576 -5.5683,-3.63037 -7.9372,-2.72136 -2.3688,0.90901 -5.1478,-0.53858 -6.1756,-3.21688 -1.0278,-2.6783 -4.3467,-4.86963 -7.3753,-4.86963 -6.0515,0 -11.0996,-15.19893 -7.2869,-21.93977 1.7542,-3.10163 1.3771,-3.11633 -1.9005,-0.0741 -5.6761,5.26847 -8.8936,4.74039 -9.2501,-1.51819 -0.1984,-3.48357 -1.1031,-2.69923 -2.6268,2.27729 l -2.3241,7.59099 -4.5675,-10.29924 c -2.5121,-5.66458 -5.0932,-8.72206 -5.7358,-6.79441 -0.6792,2.03759 -11.3906,4.29311 -25.5868,5.38784 -20.895,1.61131 -25.1917,1.10987 -29.7766,-3.47498 -4.2874,-4.2874 -8.4311,-4.99405 -20.7378,-3.5365 -15.1462,1.79384 -15.2977,1.73073 -9.9726,-4.15347 6.3044,-6.96624 2.57,-7.7926 -5.9825,-1.32382 -3.2417,2.45191 -9.2161,4.45802 -13.2765,4.45802 -6.0932,0 -6.7464,-0.76628 -3.7408,-4.38782 7.228,-8.70929 32.5652,-22.81948 48.8206,-27.18802 14.941,-4.01533 15.5495,-4.4812 6.0876,-4.66106 l -10.5127,-0.19982 10.5127,-9.26108 c 32.3402,-28.48995 65.9911,-42.35762 102.7837,-42.35762 17.4172,0 21.4888,3.62218 12.6137,11.22129 -6.0799,5.20581 -8.0143,16.95944 -4.3589,26.4853 1.3242,3.45089 5.9207,4.80293 16.3284,4.80293 9.1716,0 15.8719,1.67078 18.2653,4.55459 2.0789,2.50502 7.3702,4.74066 11.7582,4.96809 l 7.9783,0.4135 -7.4902,1.40215 c -4.1196,0.77118 -10.7942,4.00105 -14.8323,7.17748 -4.0382,3.17643 -12.0977,5.77534 -17.9099,5.77534 h -10.5678 l 2.0524,17.45926 c 1.1288,9.60259 4.1478,23.11763 6.7089,30.03342 2.5611,6.91579 4.1225,15.11405 3.4696,18.21836 -0.9959,4.73618 -2.0433,4.17874 -6.5103,-3.46497 l -5.3233,-9.10918 1.2483,8.35008 c 1.3739,9.18956 -1.2713,10.72068 -6.8689,3.97598 z"
     id="path693" />
  <path
     style="fill:#e3e2db;stroke-width:3.03639"
     d="m 2360.905,323.71821 c -10.2273,-2.72838 -13.9703,-5.37562 -15.2469,-10.78326 -1.6817,-7.12411 -1.7167,-7.11428 -5.8206,1.63692 l -4.1287,8.80406 -2.818,-8.13003 c -2.5267,-7.28971 -3.9763,-7.96936 -14.0248,-6.5756 -6.1637,0.85493 -15.1682,2.80547 -20.01,4.33453 -4.8417,1.52907 -12.3568,2.72663 -16.7001,2.66127 -7.4583,-0.11225 -7.3066,-0.39887 2.7304,-5.15964 l 10.6273,-5.04079 -10.372,-1.14311 -10.3721,-1.1431 13.1241,-7.45462 c 7.2182,-4.10004 20.0839,-9.66614 28.5904,-12.36911 15.2607,-4.84913 26.0938,-11.71105 26.0938,-16.52839 0,-1.35877 -2.2738,-1.59799 -5.0527,-0.53159 -3.6003,1.38155 -4.3613,0.82016 -2.6474,-1.95298 1.4049,-2.27328 0.7462,-4.91724 -1.584,-6.35736 -3.2769,-2.02526 -3.2457,-3.36141 0.1749,-7.48293 3.5378,-4.26284 3.5084,-5.44856 -0.1953,-7.88409 -3.6207,-2.38093 -3.2017,-3.83903 2.4726,-8.60537 9.2764,-7.79208 8.6019,-9.46317 -3.0364,-7.52278 l -9.8683,1.64528 10.6274,-9.66161 10.6274,-9.66161 -12.9054,1.57879 c -7.3433,0.89835 -12.1735,0.39463 -11.2073,-1.16876 0.934,-1.51116 -1.1153,-2.74756 -4.5539,-2.74756 -3.4386,0 -6.252,-1.45845 -6.252,-3.24101 0,-1.92288 -2.6244,-2.40803 -6.453,-1.19289 -11.4681,3.63982 -3.1729,-4.31112 13.1018,-12.55814 27.8667,-14.12113 81.4066,-21.78584 81.4066,-11.65408 0,6.12888 -5.1352,15.80715 -14.1148,26.60179 -3.927,4.72068 -7.1399,9.53978 -7.1399,10.7091 0,1.16932 5.4655,9.39995 12.1456,18.29028 6.68,8.89033 12.1455,17.93506 12.1455,20.09939 0,2.16434 4.8299,8.17584 10.7331,13.35889 11.7745,10.33814 22.5977,11.85195 34.8128,4.86914 10.3356,-5.90832 12.9839,-5.63611 22.1558,2.27729 l 7.9183,6.83189 -12.234,5.91568 c -6.7286,3.25362 -14.1807,9.68029 -16.5601,14.28149 -2.608,5.04335 -8.2433,9.48561 -14.1895,11.18542 -5.4249,1.55078 -17.0875,5.71354 -25.9169,9.25056 -17.8286,7.14205 -26.1303,7.54172 -46.0837,2.21864 z"
     id="path695" />
  <path
     style="fill:#e3e2db;stroke-width:3.03639"
     d="m 2646.2171,327.93052 c 0,-1.67002 -2.0495,-3.03639 -4.5546,-3.03639 -10.7276,0 -3.8807,-6.30878 26.556,-24.46877 12.5263,-7.4738 22.3426,-15.81704 25.2699,-21.47784 5.2573,-10.16646 3.9823,-17.81766 -2.9691,-17.81766 -9.3591,0 -7.6152,-6.06278 3.419,-11.8865 6.3187,-3.33491 9.8695,-6.12386 7.8907,-6.19767 -1.9788,-0.0738 -7.3016,-1.54238 -11.8285,-3.26349 l -8.2307,-3.12929 6.5148,-6.93468 c 8.5082,-9.0565 8.2185,-13.04768 -1.3092,-18.03976 l -7.8241,-4.09942 12.3787,-4.86247 c 14.672,-5.76335 15.8936,-10.87259 3.2062,-13.41007 -11.2254,-2.24508 -13.4387,-5.25365 -7.4943,-10.18703 5.9402,-4.92994 5.9577,-13.31882 0.023,-11.04147 -3.1573,1.21159 -5.2458,-1.18047 -7.0068,-8.02522 -2.1357,-8.30134 -4.0629,-9.89636 -12.9612,-10.72688 -16.7867,-1.5668 -16.8712,-5.56843 -0.2951,-13.9682 10.8805,-5.51356 20.2544,-7.82917 31.6936,-7.82917 22.511,0 51.2302,5.66692 57.591,11.36398 6.9439,6.21929 6.5923,19.56127 -1.0609,40.25471 -12.8056,34.62511 -13.4321,43.12079 -4.5623,61.87001 13.0369,27.55763 41.3677,39.73659 62.8779,27.0302 8.2865,-4.89497 9.4769,-4.90602 18.6869,-0.17356 5.4101,2.77994 12.5693,5.65722 15.9093,6.39397 5.8436,1.28897 5.834,1.35282 -0.2539,1.69175 -3.4796,0.19372 -12.0675,5.65215 -19.0841,12.12984 -17.6289,16.27489 -43.6874,25.41846 -67.7885,23.78601 -10.2493,-0.69422 -23.8422,0.0595 -30.2065,1.67491 -15.9827,4.05684 -32.6789,0.51014 -35.6706,-7.57737 -2.3767,-6.42473 -2.3869,-6.42358 -4.1904,0.47308 -1.1786,4.50684 -3.1157,6.10525 -5.5647,4.59169 -2.6201,-1.61931 -3.1701,-0.79303 -1.8179,2.73088 1.5583,4.06082 0.02,5.06595 -7.834,5.12021 -5.3752,0.0371 -13.189,2.73951 -17.364,6.00528 -8.4838,6.6361 -12.1456,7.55155 -12.1456,3.03639 z"
     id="path697" />
  <path
     style="fill:#e3e2db;stroke-width:3.03639"
     d="m 3110.7854,334.11851 c -4.1751,-1.40044 -14.0384,-2.68246 -21.9186,-2.84893 -11.0862,-0.23419 -13.9514,-1.28296 -12.6648,-4.63571 1.2386,-3.22782 -0.063,-3.88169 -5.104,-2.56352 -4.0594,1.06156 -8.1035,0.0618 -10.1081,-2.49884 -2.2615,-2.88886 -10.7015,-4.44567 -26.1144,-4.81696 -12.5251,-0.30173 -26.8721,-1.8376 -31.8821,-3.41305 l -9.1092,-2.86446 9.1092,-3.54443 c 30.0372,-11.68763 50.169,-23.4558 53.3777,-31.20228 1.8753,-4.5274 6.6875,-10.37932 10.6936,-13.00425 7.7042,-5.04795 9.4708,-13.37675 3.9982,-18.84932 -2.3566,-2.35666 -2.1665,-5.07771 0.6724,-9.62349 3.4516,-5.52698 3.0951,-7.14176 -2.7871,-12.62184 -8.0647,-7.51337 -9.4241,-26.4648 -2.1001,-29.27531 2.9316,-1.12494 3.9762,-3.89003 2.8318,-7.49569 -1.3761,-4.33574 -0.2998,-5.7132 4.4641,-5.7132 8.6155,0 7.8673,-5.78298 -2.3657,-18.28564 -15.9587,-19.49818 -19.81,-30.8165 -9.5752,-28.14006 9.6551,2.52488 6.8647,-2.96784 -6.041,-11.89135 -12.2135,-8.44484 -24.5031,-26.701975 -17.9742,-26.701975 2.0623,0 2.8801,-3.077409 2.0172,-7.590984 -1.4635,-7.656133 4.4276,-10.875606 8.3342,-4.554591 1.0321,1.670017 3.4304,3.036394 5.3294,3.036394 1.8991,0 -0.8391,-4.440726 -6.0848,-9.86828 -11.4646,-11.861915 -15.2439,-21.141515 -13.4866,-33.114671 1.2769,-8.699794 1.4288,-8.772532 5.6719,-2.714739 5.3411,7.625518 10.0603,8.048192 10.17,0.910883 0.06,-3.914669 2.3375,-2.593582 8.6498,5.017687 4.7125,5.682257 10.0668,9.405158 11.8985,8.273112 1.9542,-1.207749 8.6079,5.815394 16.1023,16.996168 7.0245,10.479937 20.2196,28.37796 29.3224,39.773386 14.0168,17.54707 16.2157,21.96309 14.3634,28.84574 -3.2963,12.24865 -2.4153,107.17298 1.079,116.25483 3.5857,9.31963 32.8827,26.99148 44.7474,26.99148 4.3544,0 11.3913,-2.73276 15.6374,-6.07279 9.6533,-7.59322 17.4076,-7.71218 24.7402,-0.37955 3.1313,3.13128 9.6216,7.12254 14.4229,8.86947 8.6015,3.12962 8.6182,3.1812 1.1386,3.51532 -4.6472,0.2076 -12.8898,5.62836 -21.2547,13.97815 -16.6492,16.61904 -34.2016,25.50455 -57.0966,28.90389 -9.5123,1.41235 -21.3942,3.21991 -26.4043,4.01678 -5.01,0.7969 -12.5251,0.30303 -16.7001,-1.09738 z"
     id="path699" />
  <path
     style="fill:#ff6600;stroke-width:3.03639"
     d="m 3394.5461,322.08753 c 0.9541,-1.54362 -0.6733,-3.38734 -3.6162,-4.09714 -3.4446,-0.83077 3.3031,-5.42591 18.9402,-12.8982 17.9925,-8.59781 28.6215,-11.74041 40.9914,-12.11966 22.8023,-0.6991 23.8527,-1.09589 15.357,-5.8012 -6.5997,-3.65523 -7.4662,-6.29161 -7.8731,-23.95414 -0.4067,-17.65066 0.246,-20.0829 5.8977,-21.97994 6.0268,-2.02296 5.963,-2.20483 -1.2361,-3.52292 -10.953,-2.00541 -13.2097,-5.35927 -8.955,-13.30917 2.6189,-4.89346 2.7554,-7.34528 0.4518,-8.11314 -1.8156,-0.60523 -2.6016,-2.92349 -1.7466,-5.1517 0.8551,-2.2282 0.2234,-4.87404 -1.4037,-5.87963 -1.6271,-1.0056 -2.1989,-4.73256 -1.2706,-8.28213 1.082,-4.13784 -0.075,-7.44035 -3.225,-9.20304 -2.702,-1.5121 -7.1205,-7.82959 -9.819,-14.03886 -2.6985,-6.20928 -6.1137,-13.59151 -7.5893,-16.40496 -2.0651,-3.93717 -1.2315,-5.33588 3.6191,-6.07279 5.9013,-0.89653 5.702,-1.58332 -3.1345,-10.79806 -9.8202,-10.24062 -12.9655,-26.37388 -5.6412,-28.93583 2.7299,-0.95487 2.1715,-3.15717 -1.9888,-7.84402 -5.7145,-6.437787 -5.7053,-6.516401 0.7591,-6.516401 4.9554,0 6.5434,-1.84228 6.5434,-7.590984 V 81.98263 l 6.3764,6.376427 c 4.569,4.568948 7.3067,5.446131 9.6584,3.094527 2.3516,-2.351604 5.1059,-0.07074 9.7167,8.046443 3.5392,6.230593 15.9101,22.699133 27.491,36.596773 27.1088,32.53217 36.4164,60.36282 31.2359,93.39842 -2.3652,15.08304 -1.9729,18.17329 3.0127,23.72894 3.1527,3.51313 6.5761,8.77866 7.6075,11.70119 2.784,7.88812 27.3448,7.36244 35.4663,-0.7591 3.3401,-3.34003 8.0743,-6.07278 10.5206,-6.07278 2.4462,0 5.9103,2.73275 7.6978,6.07278 1.7875,3.34004 5.5931,6.1594 8.4569,6.26526 4.1984,0.15519 4.0018,0.68064 -1.0156,2.7131 -3.4223,1.38635 -14.3534,10.34716 -24.2911,19.9129 -9.9378,9.56574 -25.2198,20.67203 -33.96,24.68064 -15.1949,6.96901 -17.2765,7.15713 -47.5041,4.29304 -20.36,-1.92912 -37.9412,-1.95895 -49.3912,-0.0838 -22.5662,3.69565 -38.3741,3.75695 -36.1388,0.14013 z"
     id="path701" />
  <path
     style="fill:#e3e2db;fill-opacity:1;stroke-width:2.14705"
     d="m 3395.7792,320.30793 c -1.9779,-3.69572 -1.5771,-4.9954 2.3997,-7.78082 10.9084,-7.64055 37.3824,-16.82774 51.0643,-17.72069 7.6757,-0.50096 16.2828,-1.3943 19.1269,-1.98521 l 5.1711,-1.07438 -6.7814,-6.19383 c -6.532,-5.96612 -6.7813,-6.82701 -6.7813,-23.41577 0,-15.10379 0.5355,-17.50853 4.3542,-19.55225 5.5145,-2.95125 3.9828,-5.49304 -4.3096,-7.15151 -6.9014,-1.38028 -8.137,-5.04263 -4.1898,-12.41819 1.5446,-2.88606 1.5898,-5.14123 0.1381,-6.89045 -1.1869,-1.43013 -2.823,-7.89005 -3.6359,-14.35537 -0.9627,-7.65792 -3.1735,-13.626 -6.3429,-17.12277 -4.9979,-5.51404 -12.2213,-18.81332 -14.8686,-27.37494 -1.0929,-3.53484 -0.6248,-4.83087 1.7449,-4.83087 6.1435,0 5.6174,-3.91377 -1.7041,-12.67697 -9.1925,-11.00268 -11.6126,-20.44523 -6.6465,-25.93266 3.3135,-3.66138 3.3236,-4.3768 0.1315,-9.24863 -3.269,-4.989163 -3.2191,-5.343218 0.9051,-6.421718 2.635,-0.689087 4.3648,-2.922832 4.3648,-5.636548 0,-5.263547 1.6676,-5.533034 7.4021,-1.196181 2.2998,1.739302 5.8481,2.633402 7.8851,1.986888 2.6727,-0.848284 5.6433,1.688861 10.6724,9.114909 3.8328,5.65972 13.449,18.50288 21.3693,28.54036 20.274,25.6936 27.3296,37.53071 32.5106,54.54258 3.8922,12.78044 4.3286,18.06249 3.168,38.34712 l -1.346,23.52504 6.9412,9.96161 c 3.8177,5.47889 7.9074,10.67145 9.0883,11.53903 3.733,2.7426 23.3947,1.70878 28.9852,-1.52406 15.2499,-8.81846 14.8692,-8.77048 20.5949,-2.59559 2.9389,3.16955 6.4856,5.76282 7.8815,5.76282 1.3958,0 0.149,1.66163 -2.7708,3.69251 -2.9197,2.03088 -13.3676,10.62084 -23.2175,19.0888 -9.8499,8.46797 -22.8933,18.1589 -28.9853,21.53538 l -11.0762,6.13909 -48.3088,0.0527 c -26.5698,0.029 -53.7652,0.87503 -60.4343,1.88007 -11.0598,1.66669 -12.3344,1.4373 -14.5002,-2.60951 z"
     id="path1677" />
</svg>
